<svg width="531" height="540" viewBox="0 0 531 540" fill="none" xmlns="http://www.w3.org/2000/svg">
<g opacity="0.168155">
<path fill-rule="evenodd" clip-rule="evenodd" d="M467.103 106.505C467.406 49.5818 416.082 6.28239 360.023 16.1671L72.174 66.9226C16.1148 76.8074 -17.3048 135.049 2.44864 188.436L79.681 397.168C94.9824 438.522 137.669 463.016 181.093 455.359L218.156 448.824L279.062 494.281C289.593 502.141 304.569 499.5 311.777 488.513L353.463 424.966L390.525 418.431C433.95 410.774 465.684 373.157 465.919 329.064L467.103 106.505ZM354.236 195.532C365.393 258.803 326.163 318.606 266.614 329.106C207.065 339.606 149.747 296.827 138.591 233.556C127.435 170.286 166.664 110.483 226.213 99.9827C285.762 89.4827 343.08 132.262 354.236 195.532ZM262.574 306.194C310.213 297.794 341.597 249.951 332.672 199.335C323.747 148.718 277.892 114.495 230.253 122.895C182.614 131.295 151.23 179.138 160.155 229.754C169.08 280.371 214.935 314.594 262.574 306.194Z" fill="white"/>
</g>
</svg>
