<svg width="20" height="16" viewBox="0 0 20 16" fill="none" xmlns="http://www.w3.org/2000/svg">
<path d="M16.3635 14V4.68889C16.3635 4.24706 16.7217 3.88889 17.1635 3.88889C17.6053 3.88889 17.9635 4.24706 17.9635 4.68889V14.8C17.9635 15.2418 17.6053 15.6 17.1635 15.6H2.43623C1.9944 15.6 1.63623 15.2418 1.63623 14.8V4.68889C1.63623 4.24706 1.9944 3.88889 2.43623 3.88889C2.87806 3.88889 3.23623 4.24706 3.23623 4.68889V14H16.3635Z" fill="black"/>
<path fill-rule="evenodd" clip-rule="evenodd" d="M18.8 0H0.8C0.358172 0 0 0.358172 0 0.8V4.68889C0 5.13072 0.358172 5.48889 0.8 5.48889H18.8C19.2418 5.48889 19.6 5.13072 19.6 4.68889V0.8C19.6 0.358172 19.2418 0 18.8 0ZM1.6 3.88889V1.6H18V3.88889H1.6Z" fill="black"/>
<path d="M8.16377 8.6C7.72194 8.6 7.36377 8.24183 7.36377 7.8C7.36377 7.35817 7.72194 7 8.16377 7H11.4365C11.8783 7 12.2365 7.35817 12.2365 7.8C12.2365 8.24183 11.8783 8.6 11.4365 8.6H8.16377Z" fill="black"/>
</svg>
