<svg width="16" height="18" viewBox="0 0 16 18" fill="none" xmlns="http://www.w3.org/2000/svg">
<path fill-rule="evenodd" clip-rule="evenodd" d="M13.2 1.6H2.4C1.07452 1.6 0 2.67452 0 4V15.2C0 16.5255 1.07452 17.6 2.4 17.6H13.2C14.5255 17.6 15.6 16.5255 15.6 15.2V4C15.6 2.67452 14.5255 1.6 13.2 1.6ZM1.6 4C1.6 3.55817 1.95817 3.2 2.4 3.2H13.2C13.6418 3.2 14 3.55817 14 4V15.2C14 15.6418 13.6418 16 13.2 16H2.4C1.95817 16 1.6 15.6418 1.6 15.2V4Z" fill="black"/>
<path d="M10.1113 0.8C10.1113 0.358172 10.4695 0 10.9113 0C11.3532 0 11.7113 0.358172 11.7113 0.8V4C11.7113 4.44183 11.3532 4.8 10.9113 4.8C10.4695 4.8 10.1113 4.44183 10.1113 4V0.8Z" fill="black"/>
<path d="M3.88867 0.8C3.88867 0.358172 4.24684 0 4.68867 0C5.1305 0 5.48867 0.358172 5.48867 0.8V4C5.48867 4.44183 5.1305 4.8 4.68867 4.8C4.24684 4.8 3.88867 4.44183 3.88867 4V0.8Z" fill="black"/>
<path d="M0.8 8C0.358172 8 0 7.64183 0 7.2C0 6.75817 0.358172 6.4 0.8 6.4H14.8C15.2418 6.4 15.6 6.75817 15.6 7.2C15.6 7.64183 15.2418 8 14.8 8H0.8Z" fill="black"/>
</svg>
