<svg width="18" height="18" viewBox="0 0 18 18" fill="none" xmlns="http://www.w3.org/2000/svg">
<path fill-rule="evenodd" clip-rule="evenodd" d="M0 8.8C0 13.6601 3.93989 17.6 8.8 17.6C13.6601 17.6 17.6 13.6601 17.6 8.8C17.6 3.93989 13.6601 0 8.8 0C3.93989 0 0 3.93989 0 8.8ZM16 8.8C16 12.7765 12.7765 16 8.8 16C4.82355 16 1.6 12.7765 1.6 8.8C1.6 4.82355 4.82355 1.6 8.8 1.6C12.7765 1.6 16 4.82355 16 8.8Z" fill="black"/>
<path d="M9.6 8.30557L12.3578 9.68446C12.753 9.88205 12.9131 10.3626 12.7155 10.7578C12.518 11.153 12.0374 11.3131 11.6422 11.1155L8.44223 9.51554C8.1712 9.38003 8 9.10302 8 8.8V4C8 3.55817 8.35817 3.2 8.8 3.2C9.24183 3.2 9.6 3.55817 9.6 4V8.30557Z" fill="black"/>
</svg>
