<svg width="12" height="20" viewBox="0 0 12 20" fill="none" xmlns="http://www.w3.org/2000/svg">
<path d="M5 0.8C5 0.358172 5.35817 0 5.8 0C6.24183 0 6.6 0.358172 6.6 0.8V18.8C6.6 19.2418 6.24183 19.6 5.8 19.6C5.35817 19.6 5 19.2418 5 18.8V0.8Z" fill="black"/>
<path d="M9.96667 3.27272C10.4085 3.27272 10.7667 3.63089 10.7667 4.07272C10.7667 4.51455 10.4085 4.87272 9.96667 4.87272H3.71667C2.54441 4.87272 1.6 5.79996 1.6 6.93636C1.6 8.07275 2.54441 8.99999 3.71667 8.99999H7.88333C9.93274 8.99999 11.6 10.6369 11.6 12.6636C11.6 14.6903 9.93274 16.3273 7.88333 16.3273H0.8C0.358172 16.3273 0 15.9691 0 15.5273C0 15.0854 0.358172 14.7273 0.8 14.7273H7.88333C9.05559 14.7273 10 13.8 10 12.6636C10 11.5272 9.05559 10.6 7.88333 10.6H3.71667C1.66726 10.6 0 8.96305 0 6.93636C0 4.90967 1.66726 3.27272 3.71667 3.27272H9.96667Z" fill="black"/>
</svg>
