<svg width="20" height="19" viewBox="0 0 20 19" fill="none" xmlns="http://www.w3.org/2000/svg">
<path  d="M9.87005 18.8934C9.33655 18.8934 8.90405 18.4609 8.90405 17.9274C8.90405 17.3939 9.33655 16.9614 9.87005 16.9614H18.4801C19.0136 16.9614 19.4461 17.3939 19.4461 17.9274C19.4461 18.4609 19.0136 18.8934 18.4801 18.8934H9.87005Z" fill="white"/>
<path  fill-rule="evenodd" clip-rule="evenodd" d="M16.3892 0.412913C15.351 0.130081 14.2435 0.431782 13.4864 1.20157L1.52805 13.3595C1.40629 13.4833 1.32015 13.6376 1.27869 13.8062L0.322019 17.6967C0.14788 18.4049 0.791236 19.0433 1.49804 18.8636L5.32471 17.891C5.49578 17.8475 5.65166 17.758 5.77544 17.6321L17.7338 5.47424C18.486 4.70948 18.7788 3.5986 18.5044 2.55771C18.2292 1.51345 17.424 0.694806 16.3892 0.412913Z" fill="white"/>
</svg>
