<svg width="35" height="36" viewBox="0 0 35 36" fill="none" xmlns="http://www.w3.org/2000/svg">
<path fill-rule="evenodd" clip-rule="evenodd" d="M34.6271 21.3176V12.7825C34.6271 9.43712 31.6161 -0.936242 18.3985 0.0681583C8.86879 0.791118 4.81887 7.42824 3.30039 11.0766C3.2952 11.0894 3.29208 11.1024 3.28898 11.1154L3.28898 11.1154C3.28615 11.1273 3.28333 11.1391 3.27895 11.1507C3.26966 11.162 3.26018 11.1732 3.25071 11.1843L3.2507 11.1843C3.21413 11.2273 3.17761 11.2702 3.15271 11.3236C3.00279 11.6495 -0.511611 19.4113 0.134789 27.7972C0.143189 27.9096 0.175349 28.0144 0.223509 28.1093C0.22461 28.1191 0.224161 28.1282 0.223711 28.1373C0.223212 28.1475 0.222711 28.1577 0.224309 28.1689C0.559349 30.7714 1.66175 33.0833 2.59119 34.6431C3.30031 35.8335 5.04527 36.2734 6.32287 35.7363L32.3161 24.7983C33.5921 24.2606 34.6271 22.7038 34.6271 21.3176ZM17.719 13.689C16.8133 16.2701 14.8389 20.3667 10.8693 23.1551C7.45431 25.5557 4.54887 26.0713 2.62943 26.0506C2.31503 26.0475 2.01359 26.0896 1.73279 26.1638C1.64799 20.9098 3.15807 16.0023 4.04623 13.5872C4.30943 13.7594 4.61999 13.8726 4.96655 13.9031C7.02055 14.0845 10.0086 13.8955 12.5423 11.9463C14.1258 10.7277 15.3315 10.3077 16.2265 10.2663C17.6105 10.2029 18.1781 12.3824 17.719 13.689ZM25.6766 19.5596C25.6766 20.8066 26.688 21.8179 27.9349 21.8179C29.1818 21.8179 30.194 20.8066 30.194 19.5596C30.194 18.3126 29.1819 17.3013 27.9349 17.3013C26.688 17.3013 25.6766 18.3126 25.6766 19.5596Z" fill="white"/>
</svg>
