<svg width="166" height="58" viewBox="0 0 166 58" fill="none" xmlns="http://www.w3.org/2000/svg">
<g clip-path="url(#clip0)">
<path fill-rule="evenodd" clip-rule="evenodd" d="M51.8744 15.2889C52.9905 9.15046 48.2748 3.5 42.0357 3.5H10C3.76096 3.5 -0.954773 9.15045 0.161301 15.2889L4.52494 39.2888C5.38946 44.0438 9.53078 47.5 14.3636 47.5H18.4885L24.1974 53.5657C25.1845 54.6145 26.8513 54.6145 27.8384 53.5657L33.5473 47.5H37.6721C42.505 47.5 46.6463 44.0438 47.5108 39.2889L51.8744 15.2889ZM25.9246 10.0004C19.3307 10.042 13.9975 15.7343 13.9975 22.7502C13.9975 29.7918 19.37 35.5002 25.9975 35.5002C32.6249 35.5002 37.9975 29.7918 37.9975 22.7502C37.9975 15.7343 32.6642 10.042 26.0703 10.0004H25.9246ZM25.9975 32.9502C31.2994 32.9502 35.5975 28.3835 35.5975 22.7502C35.5975 17.1169 31.2994 12.5502 25.9975 12.5502C20.6955 12.5502 16.3975 17.1169 16.3975 22.7502C16.3975 28.3835 20.6955 32.9502 25.9975 32.9502Z" fill="white"/>
<path d="M83.8925 26.8075C84.5725 26.8075 85.0967 27.0058 85.465 27.4025C85.8617 27.7992 86.0458 28.3375 86.0175 29.0175L85.3375 38.07C85.2242 39.3733 84.9692 40.2942 84.5725 40.8325C84.2042 41.3708 83.4817 41.7958 82.405 42.1075C81.2433 42.5042 79.9117 42.8158 78.41 43.0425C76.9367 43.2692 75.5483 43.3825 74.245 43.3825C71.2983 43.3825 68.7625 42.8158 66.6375 41.6825C64.5408 40.5492 62.9258 38.92 61.7925 36.795C60.6875 34.67 60.135 32.1483 60.135 29.23C60.135 25.8867 60.7725 22.9825 62.0475 20.5175C63.3225 18.0242 65.1217 16.0975 67.445 14.7375C69.7967 13.3775 72.545 12.6975 75.69 12.6975C77.73 12.6975 79.5858 12.9525 81.2575 13.4625C82.9292 13.9725 84.2892 14.6242 85.3375 15.4175C86.2158 16.0125 86.655 16.7633 86.655 17.67C86.655 18.265 86.4567 18.7892 86.06 19.2425C85.6633 19.6958 85.1675 19.9225 84.5725 19.9225C84.1192 19.9225 83.6517 19.7667 83.17 19.455C82.1217 18.6617 81.0167 18.0808 79.855 17.7125C78.7217 17.3158 77.3475 17.1175 75.7325 17.1175C72.5875 17.1175 70.1225 18.1942 68.3375 20.3475C66.5525 22.5008 65.66 25.4475 65.66 29.1875C65.66 32.3608 66.425 34.7975 67.955 36.4975C69.485 38.1975 71.7942 39.0475 74.8825 39.0475C76.6958 39.0475 78.5375 38.7642 80.4075 38.1975L81.0025 30.7175H76.4125C75.7042 30.7175 75.1517 30.5617 74.755 30.25C74.3867 29.91 74.2025 29.4283 74.2025 28.805C74.2025 28.1817 74.415 27.7 74.84 27.36C75.265 26.9917 75.8175 26.8075 76.4975 26.8075H83.8925ZM101.554 21.7925C102.178 21.7358 102.674 21.8775 103.042 22.2175C103.439 22.5292 103.637 22.9967 103.637 23.62C103.637 24.47 103.439 25.1075 103.042 25.5325C102.645 25.9575 101.951 26.2267 100.959 26.34L99.8119 26.4675C97.9703 26.6658 96.6244 27.19 95.7744 28.04C94.9244 28.8617 94.4286 30.1083 94.2869 31.78L93.5644 40.705C93.5078 41.555 93.2103 42.1925 92.6719 42.6175C92.1336 43.0425 91.4961 43.255 90.7594 43.255C89.9944 43.255 89.3711 43.0425 88.8894 42.6175C88.4078 42.1925 88.1953 41.555 88.2519 40.705L89.6119 24.215C89.6686 23.4217 89.9661 22.8267 90.5044 22.43C91.0711 22.005 91.7086 21.7925 92.4169 21.7925C93.1536 21.7925 93.7203 21.9908 94.1169 22.3875C94.5419 22.7842 94.7261 23.365 94.6694 24.13L94.5844 25.2775C95.3211 24.2292 96.2561 23.4217 97.3894 22.855C98.5228 22.26 99.7553 21.92 101.087 21.835L101.554 21.7925ZM112.011 21.7075C114.816 21.7075 116.913 22.345 118.301 23.62C119.689 24.895 120.383 26.8217 120.383 29.4C120.383 29.9383 120.369 30.3492 120.341 30.6325L119.533 40.79C119.477 41.5833 119.208 42.1925 118.726 42.6175C118.273 43.0425 117.649 43.255 116.856 43.255C116.119 43.255 115.524 43.0283 115.071 42.575C114.646 42.0933 114.462 41.4842 114.518 40.7475L114.561 39.94C113.994 41.0167 113.201 41.8525 112.181 42.4475C111.161 43.0425 109.999 43.34 108.696 43.34C107.336 43.34 106.103 43.085 104.998 42.575C103.922 42.0367 103.072 41.3142 102.448 40.4075C101.825 39.4725 101.513 38.4242 101.513 37.2625C101.513 35.6758 101.91 34.415 102.703 33.48C103.525 32.5167 104.828 31.8225 106.613 31.3975C108.398 30.9442 110.778 30.7175 113.753 30.7175H115.283L115.326 29.91C115.439 28.4933 115.17 27.445 114.518 26.765C113.867 26.085 112.833 25.745 111.416 25.745C109.744 25.745 107.832 26.2975 105.678 27.4025C105.31 27.5725 104.956 27.6575 104.616 27.6575C104.106 27.6575 103.681 27.4875 103.341 27.1475C103.001 26.7792 102.831 26.34 102.831 25.83C102.831 25.4617 102.944 25.0933 103.171 24.725C103.398 24.3283 103.723 24.0025 104.148 23.7475C105.168 23.1242 106.373 22.6283 107.761 22.26C109.149 21.8917 110.566 21.7075 112.011 21.7075ZM110.056 39.515C111.388 39.515 112.507 39.0475 113.413 38.1125C114.348 37.1492 114.873 35.9308 114.986 34.4575L115.071 33.5225H113.881C112.068 33.5225 110.637 33.6217 109.588 33.82C108.568 34.0183 107.832 34.3583 107.378 34.84C106.925 35.2933 106.698 35.9167 106.698 36.71C106.698 37.56 106.996 38.24 107.591 38.75C108.214 39.26 109.036 39.515 110.056 39.515ZM135.438 21.7075C137.166 21.7075 138.696 22.1183 140.028 22.94C141.388 23.7333 142.436 24.895 143.173 26.425C143.909 27.9267 144.278 29.6975 144.278 31.7375C144.278 34.0042 143.867 36.0158 143.045 37.7725C142.223 39.5292 141.062 40.9033 139.56 41.895C138.058 42.8583 136.344 43.34 134.418 43.34C132.888 43.34 131.556 43.0283 130.423 42.405C129.289 41.7817 128.397 40.8892 127.745 39.7275L127.66 40.705C127.603 41.4983 127.32 42.1217 126.81 42.575C126.3 43.0283 125.648 43.255 124.855 43.255C124.062 43.255 123.438 43.0283 122.985 42.575C122.56 42.1217 122.362 41.4983 122.39 40.705L124.43 15.2475C124.458 14.5108 124.742 13.93 125.28 13.505C125.847 13.0517 126.527 12.825 127.32 12.825C128.113 12.825 128.723 13.0375 129.148 13.4625C129.573 13.8875 129.771 14.4542 129.743 15.1625L128.935 24.895C129.615 23.875 130.522 23.0958 131.655 22.5575C132.817 21.9908 134.078 21.7075 135.438 21.7075ZM133.483 39.2175C135.183 39.2175 136.514 38.58 137.478 37.305C138.469 36.0017 138.965 34.2308 138.965 31.9925C138.965 30.0092 138.512 28.4792 137.605 27.4025C136.698 26.3258 135.409 25.7875 133.738 25.7875C132.066 25.7875 130.734 26.4392 129.743 27.7425C128.779 29.0458 128.298 30.8025 128.298 33.0125C128.298 35.0525 128.737 36.5967 129.615 37.645C130.522 38.6933 131.811 39.2175 133.483 39.2175ZM147.923 43.255C147.158 43.255 146.534 43.0425 146.053 42.6175C145.571 42.1925 145.358 41.555 145.415 40.705L146.775 24.2575C146.832 23.4358 147.129 22.8267 147.668 22.43C148.206 22.005 148.858 21.7925 149.623 21.7925C150.388 21.7925 150.997 22.005 151.45 22.43C151.932 22.8267 152.144 23.4358 152.088 24.2575L150.728 40.705C150.671 41.555 150.373 42.1925 149.835 42.6175C149.297 43.0425 148.659 43.255 147.923 43.255ZM150.133 18.01C149.169 18.01 148.404 17.755 147.838 17.245C147.271 16.7067 146.988 16.0125 146.988 15.1625C146.988 14.3125 147.271 13.6325 147.838 13.1225C148.404 12.6125 149.169 12.3575 150.133 12.3575C151.068 12.3575 151.818 12.6125 152.385 13.1225C152.98 13.6325 153.278 14.3125 153.278 15.1625C153.278 16.0125 152.994 16.7067 152.428 17.245C151.861 17.755 151.096 18.01 150.133 18.01ZM160.974 35.095C160.945 35.265 160.931 35.52 160.931 35.86C160.931 36.9933 161.186 37.8575 161.696 38.4525C162.234 39.0475 162.985 39.345 163.949 39.345C164.204 39.345 164.501 39.3308 164.841 39.3025C165.209 39.2458 165.507 39.2175 165.734 39.2175C166.13 39.2175 166.442 39.3733 166.669 39.685C166.895 39.9967 167.009 40.4217 167.009 40.96C167.009 41.8383 166.697 42.4475 166.074 42.7875C165.45 43.1275 164.359 43.2975 162.801 43.2975C160.506 43.2975 158.735 42.6883 157.489 41.47C156.242 40.2517 155.619 38.5233 155.619 36.285C155.619 35.775 155.633 35.3925 155.661 35.1375L156.341 26.2125H154.259C153.55 26.2125 152.998 26.0567 152.601 25.745C152.204 25.405 152.006 24.9233 152.006 24.3C152.006 22.9117 152.842 22.2175 154.514 22.2175H156.681L156.979 18.3075C157.035 17.5425 157.319 16.9475 157.829 16.5225C158.339 16.0692 159.004 15.8425 159.826 15.8425C160.648 15.8425 161.271 16.0692 161.696 16.5225C162.149 16.9475 162.348 17.5567 162.291 18.35L161.994 22.2175H165.564C166.272 22.2175 166.81 22.3875 167.179 22.7275C167.575 23.0392 167.774 23.4925 167.774 24.0875C167.774 25.5042 166.952 26.2125 165.309 26.2125H161.654L160.974 35.095Z" fill="white"/>
</g>
<defs>
<clipPath id="clip0">
<rect width="166" height="58" fill="white"/>
</clipPath>
</defs>
</svg>
