<svg width="52.5" height="51" viewBox="0 0 105 102" fill="none" xmlns="http://www.w3.org/2000/svg">
<path fill-rule="evenodd" clip-rule="evenodd" d="M84.0772 0C96.5553 0 105.987 11.3009 103.755 23.5777L95.0274 71.5777C93.2983 81.0875 85.0157 88 75.35 88H67.1003L55.6825 100.131C53.7083 102.229 50.3747 102.229 48.4005 100.131L36.9827 88H28.733C19.0673 88 10.7847 81.0875 9.05561 71.5777L0.328339 23.5777C-1.90381 11.3009 7.52766 0 20.0057 0H84.0772Z" fill="#F71117"/>
<path fill-rule="evenodd" clip-rule="evenodd" d="M28.0007 38.5004C28.0007 24.4611 38.6788 13.0717 51.8766 13.0007H52.1248C65.3225 13.0717 76.0007 24.4611 76.0007 38.5004C76.0007 52.5836 65.2555 64.0004 52.0007 64.0004C38.7458 64.0004 28.0007 52.5836 28.0007 38.5004ZM71.2007 38.5004C71.2007 49.767 62.6045 58.9004 52.0007 58.9004C41.3968 58.9004 32.8007 49.767 32.8007 38.5004C32.8007 27.2338 41.3968 18.1004 52.0007 18.1004C62.6045 18.1004 71.2007 27.2338 71.2007 38.5004Z" fill="white"/>
</svg>
