<svg width="224" height="213" viewBox="0 0 224 213" fill="none" xmlns="http://www.w3.org/2000/svg">
<path fill-rule="evenodd" clip-rule="evenodd" d="M204.329 51.8918C216.121 56.0657 221.04 69.8488 214.575 80.6048L161.369 169.136C156.389 177.422 146.187 181.101 137.102 177.885L114.229 169.789L86.666 183.291C84.0943 184.551 81.008 183.458 79.8706 180.886L67.6808 153.312L44.8084 145.216C35.7236 142.001 30.3397 132.806 32.0018 123.345L49.759 22.266C51.9164 9.98545 64.7942 2.50159 76.5862 6.67552L204.329 51.8918Z" fill="#F71117" fill-opacity="0.19"/>
<path d="M149.82 90.7996C149.82 109.815 133.965 125.3 114.32 125.3C94.6747 125.3 78.8198 109.815 78.8198 90.7996C78.8198 71.7842 94.6747 56.2996 114.32 56.2996C133.965 56.2996 149.82 71.7842 149.82 90.7996Z" stroke="white" stroke-width="3"/>
</svg>
