<svg width="400" height="246" viewBox="0 0 400 246" fill="none" xmlns="http://www.w3.org/2000/svg">
<path fill-rule="evenodd" clip-rule="evenodd" d="M112.566 167.713L120.047 157.433L77.1293 124.59L65.0197 141.245L112.566 167.713Z" fill="#394A63"/>
<path fill-rule="evenodd" clip-rule="evenodd" d="M106.555 211.134L114.825 211.964L120.044 157.314L106.658 155.963L106.555 211.134Z" fill="#394A63"/>
<path fill-rule="evenodd" clip-rule="evenodd" d="M105.004 216.775L111.791 217.584L111.894 216.701L120.777 218.648L128.497 219.542L128.788 217.009L114.416 210.911L105.793 209.815L105.004 216.775Z" fill="#332F2D"/>
<path fill-rule="evenodd" clip-rule="evenodd" d="M55.3413 177.566L67.3161 181.302L82.8915 128.76L63.5078 122.725L55.3413 177.566Z" fill="#394A63"/>
<path fill-rule="evenodd" clip-rule="evenodd" d="M13.491 186.508L15.5248 194.756L67.4396 181.261L64.1294 167.873L13.491 186.508Z" fill="#394A63"/>
<path fill-rule="evenodd" clip-rule="evenodd" d="M7.7848 186.91L9.35169 193.743L10.1922 193.53L11.427 202.768L13.2222 210.526L15.64 209.941L16.356 194.009L14.4363 185.314L7.7848 186.91Z" fill="#332F2D"/>
<path fill-rule="evenodd" clip-rule="evenodd" d="M7.7848 186.91L9.35168 193.743L10.1922 193.53L11.427 202.768L13.2222 210.526L14.5919 210.185L9.15452 186.58L7.7848 186.91Z" fill="#635D5A"/>
<path fill-rule="evenodd" clip-rule="evenodd" d="M128.232 103.245C128.564 104.863 130.12 105.884 131.687 105.554L138.816 104.011C140.383 103.671 141.4 102.085 141.047 100.457C140.725 98.8391 139.169 97.8067 137.581 98.1473L130.494 99.6798C128.906 100.02 127.9 101.617 128.232 103.245" fill="#FFDEC5"/>
<path fill-rule="evenodd" clip-rule="evenodd" d="M77.8889 81.6267C76.8097 79.1045 77.9512 76.1778 80.4104 75.0922C82.3716 74.2408 84.5508 74.7942 85.8997 76.3161C85.8997 76.3161 86.4705 77.0824 86.6157 77.3484C89.9882 82.7016 106.871 106.477 134.183 98.7506C135.013 101.56 135.117 101.879 135.386 104.689C96.0689 118.003 77.9719 81.8396 77.9719 81.8396L77.9823 81.829C77.9719 81.7651 77.9097 81.7012 77.8889 81.6267" fill="#506A91"/>
<mask id="mask0" mask-type="alpha" maskUnits="userSpaceOnUse" x="7" y="30" width="386" height="190">
<path fill-rule="evenodd" clip-rule="evenodd" d="M7.7848 219.543H393V30H7.7848V219.543Z" fill="white"/>
</mask>
<g mask="url(#mask0)">
<path fill-rule="evenodd" clip-rule="evenodd" d="M108.003 121.962C108.003 124.613 110.152 126.762 112.803 126.762H156.488C159.139 126.762 161.288 124.613 161.288 121.962V76.9123C161.288 74.2613 159.139 72.1123 156.488 72.1123H112.803C110.152 72.1123 108.003 74.2613 108.003 76.9123V121.962Z" fill="#F71117"/>
<path fill-rule="evenodd" clip-rule="evenodd" d="M114.177 120.429H155.093V78.4766H114.177V120.429Z" fill="#F71117"/>
<path fill-rule="evenodd" clip-rule="evenodd" d="M118.743 115.736H150.527V83.1382H118.743V115.736Z" fill="#F71117"/>
<path fill-rule="evenodd" clip-rule="evenodd" d="M126.713 85.3385C122.513 85.4571 119.369 89.2863 120.108 93.4542L122.439 106.603C123.024 109.903 125.893 112.308 129.245 112.308H130.904L134.131 115.825C134.816 116.571 135.993 116.571 136.677 115.825L139.905 112.308H141.564C144.916 112.308 147.785 109.903 148.37 106.603L150.701 93.4542C151.451 89.2202 148.195 85.3357 143.895 85.3357H143.449V89.3198H126.713V85.3385Z" fill="white"/>
<path fill-rule="evenodd" clip-rule="evenodd" d="M126.681 109.949C126.806 111.503 128.134 112.673 129.639 112.556L136.477 111.992C138.002 111.886 139.123 110.523 138.998 108.959C138.884 107.405 137.566 106.224 136.051 106.362L129.213 106.905C127.709 107.033 126.557 108.395 126.681 109.949" fill="#FFDEC5"/>
<path fill-rule="evenodd" clip-rule="evenodd" d="M81.2935 67.3157L89.0346 69.093L90.8297 60.9302L83.0783 59.1423L81.2935 67.3157Z" fill="#FFDEC5"/>
<path fill-rule="evenodd" clip-rule="evenodd" d="M62.2834 127.648L82.3416 129.043L92.6457 69.0932L77.3711 65.4641L62.2834 127.648Z" fill="#637EA8"/>
<path fill-rule="evenodd" clip-rule="evenodd" d="M80.8681 42.2793C79.4672 48.037 79.6125 53.7094 83.6802 55.8486L82.3208 62.5959L90.0826 64.3413C95.7068 65.7674 97.7302 61.9255 99.1104 56.1678L101.943 56.3701L100.978 48.3669L101.632 45.653C103.022 39.8954 99.5877 34.074 93.9739 32.6585C88.3393 31.2324 82.6632 34.7657 81.2831 40.5233L80.8681 42.2793Z" fill="#FFDEC5"/>
<path fill-rule="evenodd" clip-rule="evenodd" d="M81.9317 50.5213C85.7192 51.66 85.0032 44.3592 88.8322 45.7002C92.2047 46.8709 89.1954 49.8401 91.0113 50.5213C93.8857 51.6068 91.7066 40.2299 97.7873 41.4858C103.702 42.7203 97.31 39.5488 97.6732 35.7707C94.114 38.3569 100.122 31.7266 94.4979 30.3217C88.8945 28.8956 83.208 32.4183 81.8176 38.1759C81.8176 38.1759 77.0443 49.042 81.9317 50.5213" fill="#753A13"/>
<path fill-rule="evenodd" clip-rule="evenodd" d="M77.6658 81.6588C76.9498 79.0088 78.4544 76.2737 81.0279 75.5393C83.0825 74.954 85.1786 75.8161 86.32 77.5189C86.32 77.5189 86.787 78.349 86.87 78.6363C89.5264 84.4152 103.078 110.34 131.137 106.509C131.594 109.404 131.656 109.755 131.563 112.565C90.8339 120.259 77.7177 81.8823 77.7177 81.8823L77.7385 81.8717C77.7073 81.7865 77.6762 81.7333 77.6658 81.6588" fill="#728EB7"/>
<path fill-rule="evenodd" clip-rule="evenodd" d="M95.9268 49.1695C95.7504 49.7123 96.0721 50.287 96.5909 50.4573C97.1305 50.6382 97.7012 50.3296 97.8672 49.7868C98.0333 49.2334 97.722 48.648 97.1927 48.4884C96.6532 48.3075 96.0928 48.6161 95.9268 49.1695" fill="#3F3F3F"/>
<path fill-rule="evenodd" clip-rule="evenodd" d="M95.7441 46.6759L99.3864 47.8252L99.5835 47.1761L95.9517 46.016L95.7441 46.6759Z" fill="#3F3F3F"/>
<path fill-rule="evenodd" clip-rule="evenodd" d="M128.667 218.11L128.501 219.546L120.771 218.642L111.899 216.694L111.795 217.578L105.008 216.779L105.154 215.343L128.667 218.11Z" fill="#635D5A"/>
<path fill-rule="evenodd" clip-rule="evenodd" d="M86.0969 48.4319C85.713 49.7835 86.2422 51.1563 87.3006 51.4863C88.3694 51.8162 89.5524 50.9967 89.9674 49.6451C90.3721 48.2829 89.8325 46.91 88.7637 46.5801C87.6949 46.2501 86.5016 47.0696 86.0969 48.4319" fill="#FFEBDE"/>
<path fill-rule="evenodd" clip-rule="evenodd" d="M86.8368 48.6607C86.5981 49.5014 86.9302 50.3422 87.5735 50.5444C88.2376 50.7466 88.964 50.2251 89.213 49.395C89.4725 48.5755 89.1508 47.7241 88.4763 47.5326C87.8226 47.3197 87.0962 47.8306 86.8368 48.6607" fill="#F2D0B8"/>
<path fill-rule="evenodd" clip-rule="evenodd" d="M94.6598 30.3265C87.9668 28.7408 81.2842 33.0191 79.7381 39.8835L103.988 45.6305C105.535 38.7661 101.363 31.9016 94.6598 30.3265" fill="#4A6182"/>
<path fill-rule="evenodd" clip-rule="evenodd" d="M110.975 47.1219L102.352 45.2595L102.622 43.9611L111.235 45.8341L110.975 47.1219Z" fill="#4A6182"/>
</g>
<path fill-rule="evenodd" clip-rule="evenodd" d="M259.069 14L225.351 16.3889V25.2735L232.441 25.0151L233.757 53.2591L253.863 72.6948L253.615 22.3773L259.069 21.8379V14Z" fill="#8B4700"/>
<path fill-rule="evenodd" clip-rule="evenodd" d="M259.069 14L228.653 16.1548L231.622 20.4705L259.069 19.142V14Z" fill="#B75E00"/>
<path fill-rule="evenodd" clip-rule="evenodd" d="M356.969 171.107L358.021 189.432L361.021 185.608C361.634 184.827 362.898 185.491 362.564 186.417L358.617 197.325L359.264 213.298H351.462V171.107H356.969Z" fill="#7E6467"/>
<path fill-rule="evenodd" clip-rule="evenodd" d="M332.592 123.683L334.14 94.196L368.052 72.6948L381.489 136.855L364.061 179.708L340.354 173.381L332.592 123.683Z" fill="#B5D55A"/>
<path fill-rule="evenodd" clip-rule="evenodd" d="M334.14 94.1964L344.868 87.3938L367.018 144.033L381.489 136.855L364.061 179.709L340.354 173.381L332.592 123.683L334.14 94.1964Z" fill="#A4B55C"/>
<path fill-rule="evenodd" clip-rule="evenodd" d="M206.793 213.299L204.094 204.367L215.331 172.615L243.718 183.466L245.018 199.909L241.921 213.299H206.793Z" fill="#B5D55A"/>
<path fill-rule="evenodd" clip-rule="evenodd" d="M206.793 213.299L204.094 204.367L219.045 207.517L234.738 180.033L243.718 183.466L245.018 199.909L241.921 213.299H206.793Z" fill="#A4B55C"/>
<path fill-rule="evenodd" clip-rule="evenodd" d="M349.985 29.0303L224.556 39.6205L229.019 213.299H344.182L349.985 29.0303Z" fill="#F71117"/>
<path fill-rule="evenodd" clip-rule="evenodd" d="M344.183 213.299L345.813 161.529L308.664 180.044L305.748 193.597L292.263 197.762L241.945 213.299H344.183Z" fill="#D3080D"/>
<path fill-rule="evenodd" clip-rule="evenodd" d="M349.695 38.2288L349.282 51.3475L224.751 50.2844V47.2009L349.695 38.2288Z" fill="#CE0514"/>
<path fill-rule="evenodd" clip-rule="evenodd" d="M357.04 24.9309V37.6846L215.806 48.1594V33.5848L357.04 24.9309Z" fill="#7E6467"/>
<path fill-rule="evenodd" clip-rule="evenodd" d="M239.617 63.6121C239.748 64.1991 241.187 93.2955 241.187 93.2955L266.829 91.1831L269.577 63.6121H239.617Z" fill="white"/>
<path fill-rule="evenodd" clip-rule="evenodd" d="M243.411 90.8268C242.727 76.0995 242.384 69.2224 242.202 65.9585H266.906L264.764 88.9451L243.411 90.8268Z" fill="#7595AE"/>
<path fill-rule="evenodd" clip-rule="evenodd" d="M247.539 65.9587C245.904 67.7069 244.188 69.3102 242.46 70.9022C242.534 72.3599 242.618 74.095 242.718 76.1466C245.871 72.8411 249.026 69.533 252.042 65.9587H247.539Z" fill="#93ACBF"/>
<path fill-rule="evenodd" clip-rule="evenodd" d="M254.03 65.9587C250.383 70.5649 246.653 75.0497 242.881 79.544C242.908 80.1059 242.935 80.6955 242.964 81.2973C247.149 76.3469 251.212 71.0366 255.43 65.9587H254.03Z" fill="#93ACBF"/>
<path fill-rule="evenodd" clip-rule="evenodd" d="M266.804 67.0596C259.104 74.7258 251.322 82.1285 243.317 88.8218C243.347 89.4747 243.379 90.1381 243.411 90.8266L244.593 90.7217C251.989 84.4784 259.195 77.4633 266.473 70.6104L266.804 67.0596Z" fill="#93ACBF"/>
<path fill-rule="evenodd" clip-rule="evenodd" d="M266.182 73.729C260.375 79.8682 254.139 84.7692 248.214 90.4029L251.373 90.1246C256.405 86.1514 261.219 81.8063 265.878 76.9946L266.182 73.729Z" fill="#93ACBF"/>
<path fill-rule="evenodd" clip-rule="evenodd" d="M252.9 64.5896V90.8271H255.262L256.05 64.5896H252.9Z" fill="white"/>
<path fill-rule="evenodd" clip-rule="evenodd" d="M266.652 76.1443H242.298V78.4907L266.652 79.272V76.1443Z" fill="white"/>
<path fill-rule="evenodd" clip-rule="evenodd" d="M268.252 90.8269L240.009 92.7094L240.402 96.6583L267.762 95.3386L268.252 90.8269Z" fill="#7E6467"/>
<path fill-rule="evenodd" clip-rule="evenodd" d="M239.617 112.082C239.748 112.669 241.187 141.765 241.187 141.765L266.829 139.653L269.577 112.082H239.617Z" fill="white"/>
<path fill-rule="evenodd" clip-rule="evenodd" d="M243.411 139.296C242.727 124.569 242.384 117.692 242.202 114.428H266.906L264.764 137.415L243.411 139.296Z" fill="#7595AE"/>
<path fill-rule="evenodd" clip-rule="evenodd" d="M247.539 114.428C245.904 116.177 244.188 117.779 242.46 119.372C242.534 120.829 242.618 122.564 242.718 124.616C245.871 121.311 249.026 118.002 252.042 114.428H247.539Z" fill="#93ACBF"/>
<path fill-rule="evenodd" clip-rule="evenodd" d="M254.03 114.428C250.383 119.034 246.653 123.52 242.881 128.013C242.908 128.576 242.935 129.165 242.964 129.767C247.149 124.816 251.212 119.506 255.43 114.428H254.03Z" fill="#93ACBF"/>
<path fill-rule="evenodd" clip-rule="evenodd" d="M266.804 115.53C259.104 123.195 251.322 130.598 243.317 137.291C243.347 137.944 243.379 138.608 243.411 139.296L244.593 139.192C251.989 132.948 259.195 125.933 266.473 119.08L266.804 115.53Z" fill="#93ACBF"/>
<path fill-rule="evenodd" clip-rule="evenodd" d="M266.182 122.199C260.375 128.338 254.139 133.239 248.214 138.873L251.373 138.595C256.405 134.622 261.219 130.276 265.878 125.464L266.182 122.199Z" fill="#93ACBF"/>
<path fill-rule="evenodd" clip-rule="evenodd" d="M252.9 113.06V139.296H255.262L256.05 113.06H252.9Z" fill="white"/>
<path fill-rule="evenodd" clip-rule="evenodd" d="M266.652 124.613H242.298V126.96L266.652 127.742V124.613Z" fill="white"/>
<path fill-rule="evenodd" clip-rule="evenodd" d="M268.252 139.296L240.009 141.179L240.402 145.128L267.762 143.808L268.252 139.296Z" fill="#7E6467"/>
<path fill-rule="evenodd" clip-rule="evenodd" d="M304.963 63.6121C305.094 64.1991 306.534 93.2955 306.534 93.2955L332.176 91.1831L334.924 63.6121H304.963Z" fill="white"/>
<path fill-rule="evenodd" clip-rule="evenodd" d="M308.757 90.8268C308.074 76.0995 307.73 69.2224 307.548 65.9585H332.253L330.111 88.9451L308.757 90.8268Z" fill="#7595AE"/>
<path fill-rule="evenodd" clip-rule="evenodd" d="M312.886 65.9587C311.251 67.7069 309.534 69.3102 307.807 70.9022C307.88 72.3599 307.965 74.095 308.065 76.1466C311.218 72.8411 314.372 69.533 317.389 65.9587H312.886Z" fill="#93ACBF"/>
<path fill-rule="evenodd" clip-rule="evenodd" d="M319.377 65.9587C315.73 70.5649 312 75.0497 308.228 79.544C308.254 80.1059 308.282 80.6955 308.311 81.2973C312.496 76.3469 316.558 71.0366 320.777 65.9587H319.377Z" fill="#93ACBF"/>
<path fill-rule="evenodd" clip-rule="evenodd" d="M332.15 67.0596C324.451 74.7258 316.669 82.1285 308.664 88.8218C308.695 89.4747 308.726 90.1381 308.757 90.8266L309.94 90.7217C317.335 84.4784 324.542 77.4633 331.819 70.6104L332.15 67.0596Z" fill="#93ACBF"/>
<path fill-rule="evenodd" clip-rule="evenodd" d="M331.529 73.729C325.721 79.8682 319.485 84.7692 313.56 90.4029L316.719 90.1246C321.752 86.1514 326.566 81.8063 331.224 76.9946L331.529 73.729Z" fill="#93ACBF"/>
<path fill-rule="evenodd" clip-rule="evenodd" d="M318.246 64.5896V90.8271H320.609L321.396 64.5896H318.246Z" fill="white"/>
<path fill-rule="evenodd" clip-rule="evenodd" d="M331.999 76.1443H307.644V78.4907L331.999 79.272V76.1443Z" fill="white"/>
<path fill-rule="evenodd" clip-rule="evenodd" d="M333.599 90.8269L305.356 92.7094L305.749 96.6583L333.108 95.3386L333.599 90.8269Z" fill="#7E6467"/>
<path fill-rule="evenodd" clip-rule="evenodd" d="M304.963 112.082C305.094 112.669 306.534 141.765 306.534 141.765L332.176 139.653L334.924 112.082H304.963Z" fill="white"/>
<path fill-rule="evenodd" clip-rule="evenodd" d="M308.757 139.296C308.074 124.569 307.73 117.692 307.548 114.428H332.253L330.111 137.415L308.757 139.296Z" fill="#7595AE"/>
<path fill-rule="evenodd" clip-rule="evenodd" d="M312.886 114.428C311.251 116.177 309.534 117.779 307.807 119.372C307.88 120.829 307.965 122.564 308.065 124.616C311.218 121.311 314.372 118.002 317.389 114.428H312.886Z" fill="#93ACBF"/>
<path fill-rule="evenodd" clip-rule="evenodd" d="M319.377 114.428C315.73 119.034 312 123.52 308.228 128.013C308.254 128.576 308.282 129.165 308.311 129.767C312.496 124.816 316.558 119.506 320.777 114.428H319.377Z" fill="#93ACBF"/>
<path fill-rule="evenodd" clip-rule="evenodd" d="M332.15 115.53C324.451 123.195 316.669 130.598 308.664 137.291C308.695 137.944 308.726 138.608 308.757 139.296L309.94 139.192C317.335 132.948 324.542 125.933 331.819 119.08L332.15 115.53Z" fill="#93ACBF"/>
<path fill-rule="evenodd" clip-rule="evenodd" d="M331.529 122.199C325.721 128.338 319.485 133.239 313.56 138.873L316.719 138.595C321.752 134.622 326.566 130.276 331.224 125.464L331.529 122.199Z" fill="#93ACBF"/>
<path fill-rule="evenodd" clip-rule="evenodd" d="M318.246 113.06V139.296H320.609L321.396 113.06H318.246Z" fill="white"/>
<path fill-rule="evenodd" clip-rule="evenodd" d="M331.999 124.613H307.644V126.96L331.999 127.742V124.613Z" fill="white"/>
<path fill-rule="evenodd" clip-rule="evenodd" d="M333.599 139.296L305.356 141.179L305.749 145.128L333.108 143.808L333.599 139.296Z" fill="#7E6467"/>
<path fill-rule="evenodd" clip-rule="evenodd" d="M304.963 160.551C305.094 161.138 306.534 190.234 306.534 190.234L332.176 188.122L334.924 160.551H304.963Z" fill="white"/>
<path fill-rule="evenodd" clip-rule="evenodd" d="M308.757 187.765C308.074 173.039 307.73 166.161 307.548 162.897H332.253L330.111 185.884L308.757 187.765Z" fill="#7595AE"/>
<path fill-rule="evenodd" clip-rule="evenodd" d="M312.886 162.897C311.251 164.646 309.534 166.249 307.807 167.842C307.88 169.299 307.965 171.033 308.065 173.085C311.218 169.78 314.372 166.472 317.389 162.897H312.886Z" fill="#93ACBF"/>
<path fill-rule="evenodd" clip-rule="evenodd" d="M319.377 162.897C315.73 167.503 312 171.989 308.228 176.482C308.254 177.045 308.282 177.635 308.311 178.236C312.496 173.286 316.558 167.975 320.777 162.897H319.377Z" fill="#93ACBF"/>
<path fill-rule="evenodd" clip-rule="evenodd" d="M332.15 163.999C324.451 171.665 316.669 179.068 308.664 185.761C308.695 186.413 308.726 187.078 308.757 187.765L309.94 187.661C317.335 181.418 324.542 174.402 331.819 167.55L332.15 163.999Z" fill="#93ACBF"/>
<path fill-rule="evenodd" clip-rule="evenodd" d="M331.529 170.668C325.721 176.808 319.485 181.709 313.56 187.342L316.719 187.064C321.752 183.091 326.566 178.745 331.224 173.933L331.529 170.668Z" fill="#93ACBF"/>
<path fill-rule="evenodd" clip-rule="evenodd" d="M318.246 161.529V187.765H320.609L321.396 161.529H318.246Z" fill="white"/>
<path fill-rule="evenodd" clip-rule="evenodd" d="M331.999 173.083H307.644V175.429L331.999 176.211V173.083Z" fill="white"/>
<path fill-rule="evenodd" clip-rule="evenodd" d="M333.599 187.765L305.356 189.649L305.749 193.598L333.108 192.277L333.599 187.765Z" fill="#7E6467"/>
<path fill-rule="evenodd" clip-rule="evenodd" d="M241.945 213.299L238.089 161.598L271.543 159.819L268.049 213.299H241.945Z" fill="#888D98"/>
<path fill-rule="evenodd" clip-rule="evenodd" d="M244.752 213.299L241.321 164.363L268.316 162.927L265.217 213.299H244.752Z" fill="#F3F3F3"/>
<path fill-rule="evenodd" clip-rule="evenodd" d="M265.217 213.299L247.764 199.395L245.959 164.116L241.32 164.364L244.752 213.299H265.217Z" fill="white"/>
<path fill-rule="evenodd" clip-rule="evenodd" d="M263.305 183.695H260.754L260.035 189.062H263.305V183.695Z" fill="#7E6467"/>
<path fill-rule="evenodd" clip-rule="evenodd" d="M267.762 95.3384L249.156 101.725L240.402 96.6573L267.762 95.3384Z" fill="#DC5F4A"/>
<path fill-rule="evenodd" clip-rule="evenodd" d="M359.263 213.299H312.265C307.755 215.601 303.246 217.878 298.765 220.196H368.698L359.263 213.299Z" fill="#A4B55C"/>
<mask id="mask1" mask-type="alpha" maskUnits="userSpaceOnUse" x="200" y="213" width="113" height="12">
<path fill-rule="evenodd" clip-rule="evenodd" d="M200 213.299H312.264V225H200V213.299Z" fill="white"/>
</mask>
<g mask="url(#mask1)">
<path fill-rule="evenodd" clip-rule="evenodd" d="M206.793 213.299L200 220.196L263.305 219.149L261.671 225L273.414 219.149L271.543 225L284.974 217.339L281.85 223.179L291.222 220.196H298.765C303.245 217.878 307.755 215.601 312.264 213.299H206.793Z" fill="#B5D55A"/>
</g>
</svg>
