<svg width="449" height="244" viewBox="0 0 449 244" fill="none" xmlns="http://www.w3.org/2000/svg">
<path fill-rule="evenodd" clip-rule="evenodd" d="M123.572 184.485L132.224 172.893L82.5924 135.861L68.5884 154.641L123.572 184.485Z" fill="#394A63"/>
<path fill-rule="evenodd" clip-rule="evenodd" d="M116.621 233.444L126.185 234.38L132.221 172.76L116.741 171.236L116.621 233.444Z" fill="#394A63"/>
<path fill-rule="evenodd" clip-rule="evenodd" d="M114.828 239.805L122.676 240.717L122.796 239.721L133.068 241.917L141.996 242.925L142.332 240.069L125.712 233.193L115.74 231.957L114.828 239.805Z" fill="#332F2D"/>
<path fill-rule="evenodd" clip-rule="evenodd" d="M57.396 195.594L71.244 199.806L89.256 140.562L66.84 133.758L57.396 195.594Z" fill="#394A63"/>
<path fill-rule="evenodd" clip-rule="evenodd" d="M8.9988 205.677L11.3508 214.977L71.3868 199.761L67.5588 184.665L8.9988 205.677Z" fill="#394A63"/>
<path fill-rule="evenodd" clip-rule="evenodd" d="M2.4 206.13L4.212 213.834L5.184 213.594L6.612 224.01L8.688 232.758L11.484 232.098L12.312 214.134L10.092 204.33L2.4 206.13Z" fill="#332F2D"/>
<path fill-rule="evenodd" clip-rule="evenodd" d="M2.4 206.13L4.212 213.834L5.184 213.594L6.612 224.01L8.688 232.758L10.272 232.374L3.984 205.758L2.4 206.13Z" fill="#635D5A"/>
<path fill-rule="evenodd" clip-rule="evenodd" d="M141.689 111.794C142.073 113.618 143.873 114.77 145.685 114.398L153.929 112.658C155.741 112.274 156.917 110.486 156.509 108.65C156.137 106.826 154.337 105.662 152.501 106.046L144.305 107.774C142.469 108.158 141.305 109.958 141.689 111.794Z" fill="#FFDEC5"/>
<path fill-rule="evenodd" clip-rule="evenodd" d="M83.4708 87.418C82.2228 84.574 83.5428 81.274 86.3868 80.05C88.6548 79.09 91.1748 79.714 92.7348 81.43C92.7348 81.43 93.3948 82.294 93.5628 82.594C97.4628 88.63 116.987 115.438 148.571 106.726C149.531 109.894 149.651 110.254 149.963 113.422C104.495 128.434 83.5668 87.658 83.5668 87.658L83.5788 87.646C83.5668 87.574 83.4948 87.502 83.4708 87.418Z" fill="#506A91"/>
<mask id="mask0" mask-type="alpha" maskUnits="userSpaceOnUse" x="2" y="29" width="446" height="214">
<path fill-rule="evenodd" clip-rule="evenodd" d="M2.4 242.926H447.876V29.2059H2.4V242.926Z" fill="white"/>
</mask>
<g mask="url(#mask0)">
<path fill-rule="evenodd" clip-rule="evenodd" d="M118.296 133.51C118.296 136.161 120.445 138.31 123.096 138.31H175.116C177.767 138.31 179.916 136.161 179.916 133.51V81.4899C179.916 78.839 177.767 76.6899 175.116 76.6899H123.096C120.445 76.6899 118.296 78.839 118.296 81.4899V133.51Z" fill="#F71117"/>
<path fill-rule="evenodd" clip-rule="evenodd" d="M125.436 131.17H172.752V83.866H125.436V131.17Z" fill="#F71117"/>
<path fill-rule="evenodd" clip-rule="evenodd" d="M130.716 125.878H167.472V89.1219H130.716V125.878Z" fill="#F71117"/>
<path fill-rule="evenodd" clip-rule="evenodd" d="M167.856 99.7484C168.627 95.5056 165.368 91.6 161.055 91.6H138.912C134.6 91.6 131.34 95.5056 132.111 99.7484L135.128 116.337C135.725 119.624 138.588 122.013 141.928 122.013H144.779L148.725 126.205C149.408 126.93 150.56 126.93 151.242 126.205L155.188 122.013H158.039C161.379 122.013 164.242 119.624 164.839 116.337L167.856 99.7484ZM158.264 104.906C158.264 109.773 154.55 113.718 149.969 113.718C145.389 113.718 141.675 109.773 141.675 104.906C141.675 100.039 145.389 96.0929 149.969 96.0929C154.55 96.0929 158.264 100.039 158.264 104.906ZM149.969 111.956C153.634 111.956 156.605 108.799 156.605 104.906C156.605 101.012 153.634 97.8555 149.969 97.8555C146.305 97.8555 143.334 101.012 143.334 104.906C143.334 108.799 146.305 111.956 149.969 111.956Z" fill="white"/>
<path fill-rule="evenodd" clip-rule="evenodd" d="M139.896 119.352C140.04 121.104 141.576 122.424 143.316 122.292L151.224 121.656C152.988 121.536 154.284 120 154.14 118.236C154.008 116.484 152.484 115.152 150.732 115.308L142.824 115.92C141.084 116.064 139.752 117.6 139.896 119.352Z" fill="#FFDEC5"/>
<path fill-rule="evenodd" clip-rule="evenodd" d="M87.408 71.2815L96.36 73.2855L98.436 64.0815L89.472 62.0655L87.408 71.2815Z" fill="#FFDEC5"/>
<path fill-rule="evenodd" clip-rule="evenodd" d="M65.424 139.31L88.62 140.882L100.536 73.2856L82.872 69.1936L65.424 139.31Z" fill="#637EA8"/>
<path fill-rule="evenodd" clip-rule="evenodd" d="M86.916 43.0516C85.296 49.5436 85.464 55.9396 90.168 58.3516L88.596 65.9596L97.572 67.9276C104.076 69.5356 106.416 65.2036 108.012 58.7116L111.288 58.9396L110.172 49.9156L110.928 46.8556C112.536 40.3636 108.564 33.7996 102.072 32.2036C95.556 30.5956 88.992 34.5796 87.396 41.0716L86.916 43.0516Z" fill="#FFDEC5"/>
<path fill-rule="evenodd" clip-rule="evenodd" d="M88.146 52.3443C92.526 53.6283 91.698 45.3963 96.126 46.9083C100.026 48.2283 96.546 51.5763 98.646 52.3443C101.97 53.5683 99.45 40.7403 106.482 42.1563C113.322 43.5483 105.93 39.9723 106.35 35.7123C102.234 38.6283 109.182 31.1523 102.678 29.5683C96.198 27.9603 89.622 31.9323 88.014 38.4243C88.014 38.4243 82.494 50.6763 88.146 52.3443Z" fill="#753A13"/>
<path fill-rule="evenodd" clip-rule="evenodd" d="M83.2128 87.454C82.3848 84.466 84.1248 81.382 87.1008 80.554C89.4768 79.894 91.9008 80.866 93.2208 82.786C93.2208 82.786 93.7608 83.722 93.8568 84.046C96.9288 90.562 112.601 119.794 145.049 115.474C145.577 118.738 145.649 119.134 145.541 122.302C98.4408 130.978 83.2728 87.706 83.2728 87.706L83.2968 87.694C83.2608 87.598 83.2248 87.538 83.2128 87.454Z" fill="#728EB7"/>
<path fill-rule="evenodd" clip-rule="evenodd" d="M104.33 50.8204C104.126 51.4324 104.498 52.0804 105.098 52.2724C105.722 52.4764 106.382 52.1284 106.574 51.5164C106.766 50.8924 106.406 50.2324 105.794 50.0524C105.17 49.8484 104.522 50.1964 104.33 50.8204Z" fill="#3F3F3F"/>
<path fill-rule="evenodd" clip-rule="evenodd" d="M104.119 48.0088L108.331 49.3048L108.559 48.5728L104.359 47.2648L104.119 48.0088Z" fill="#3F3F3F"/>
<path fill-rule="evenodd" clip-rule="evenodd" d="M142.193 241.31L142.001 242.93L133.061 241.91L122.801 239.714L122.681 240.71L114.833 239.81L115.001 238.19L142.193 241.31Z" fill="#635D5A"/>
<path fill-rule="evenodd" clip-rule="evenodd" d="M92.9628 49.9887C92.5188 51.5127 93.1308 53.0607 94.3548 53.4327C95.5908 53.8047 96.9588 52.8807 97.4388 51.3567C97.9068 49.8207 97.2828 48.2727 96.0468 47.9007C94.8108 47.5287 93.4308 48.4527 92.9628 49.9887Z" fill="#FFEBDE"/>
<path fill-rule="evenodd" clip-rule="evenodd" d="M93.8184 50.2467C93.5424 51.1947 93.9264 52.1427 94.6704 52.3707C95.4384 52.5987 96.2784 52.0107 96.5664 51.0747C96.8664 50.1507 96.4944 49.1907 95.7144 48.9747C94.9584 48.7347 94.1184 49.3107 93.8184 50.2467Z" fill="#F2D0B8"/>
<path fill-rule="evenodd" clip-rule="evenodd" d="M102.865 29.5744C95.1252 27.7864 87.3972 32.6104 85.6092 40.3504L113.653 46.8304C115.441 39.0904 110.617 31.3504 102.865 29.5744Z" fill="#4A6182"/>
<path fill-rule="evenodd" clip-rule="evenodd" d="M121.733 48.5116L111.761 46.4116L112.073 44.9476L122.033 47.0596L121.733 48.5116Z" fill="#4A6182"/>
</g>
<path fill-rule="evenodd" clip-rule="evenodd" d="M310.209 0L272.415 2.755V13.001L280.362 12.703L281.837 45.275L304.373 67.689L304.095 9.661L310.209 9.039V0Z" fill="#8B4700"/>
<path fill-rule="evenodd" clip-rule="evenodd" d="M310.209 0L276.116 2.485L279.444 7.462L310.209 5.93V0Z" fill="#B75E00"/>
<path fill-rule="evenodd" clip-rule="evenodd" d="M419.943 181.182L421.122 202.315L424.485 197.906C425.172 197.005 426.589 197.77 426.214 198.838L421.79 211.418L422.515 229.839H413.77V181.182H419.943Z" fill="#7E6467"/>
<path fill-rule="evenodd" clip-rule="evenodd" d="M392.62 126.49L394.355 92.4851L432.367 67.6891L447.428 141.681L427.893 191.101L401.32 183.804L392.62 126.49Z" fill="#B5D55A"/>
<path fill-rule="evenodd" clip-rule="evenodd" d="M394.354 92.4853L406.379 84.6403L431.207 149.958L447.427 141.681L427.892 191.101L401.319 183.804L392.619 126.49L394.354 92.4853Z" fill="#A4B55C"/>
<path fill-rule="evenodd" clip-rule="evenodd" d="M251.614 229.839L248.589 219.538L261.185 182.921L293.003 195.435L294.46 214.397L290.989 229.839H251.614Z" fill="#B5D55A"/>
<path fill-rule="evenodd" clip-rule="evenodd" d="M251.614 229.839L248.589 219.538L265.348 223.171L282.937 191.476L293.003 195.435L294.46 214.397L290.989 229.839H251.614Z" fill="#A4B55C"/>
<path fill-rule="evenodd" clip-rule="evenodd" d="M412.115 17.3334L271.524 29.5464L276.527 229.838H405.611L412.115 17.3334Z" fill="#F71117"/>
<path fill-rule="evenodd" clip-rule="evenodd" d="M405.611 229.839L407.438 170.136L365.799 191.488L362.531 207.118L347.415 211.921L291.015 229.839H405.611Z" fill="#D3080D"/>
<path fill-rule="evenodd" clip-rule="evenodd" d="M411.79 27.9413L411.327 43.0703L271.742 41.8443V38.2883L411.79 27.9413Z" fill="#CE0514"/>
<path fill-rule="evenodd" clip-rule="evenodd" d="M420.023 12.606V27.314L261.716 39.394V22.586L420.023 12.606Z" fill="#7E6467"/>
<path fill-rule="evenodd" clip-rule="evenodd" d="M288.406 57.2147C288.553 57.8917 290.166 91.4467 290.166 91.4467L318.908 89.0107L321.988 57.2147H288.406Z" fill="white"/>
<path fill-rule="evenodd" clip-rule="evenodd" d="M292.658 88.5995C291.891 71.6155 291.507 63.6845 291.303 59.9205H318.993L316.592 86.4295L292.658 88.5995Z" fill="#7595AE"/>
<path fill-rule="evenodd" clip-rule="evenodd" d="M297.286 59.9208C295.453 61.9368 293.529 63.7858 291.593 65.6218C291.675 67.3028 291.77 69.3038 291.882 71.6698C295.416 67.8578 298.952 64.0428 302.333 59.9208H297.286Z" fill="#93ACBF"/>
<path fill-rule="evenodd" clip-rule="evenodd" d="M304.561 59.9208C300.473 65.2328 296.292 70.4048 292.064 75.5878C292.094 76.2358 292.125 76.9158 292.157 77.6098C296.848 71.9008 301.402 65.7768 306.13 59.9208H304.561Z" fill="#93ACBF"/>
<path fill-rule="evenodd" clip-rule="evenodd" d="M318.879 61.1903C310.248 70.0313 301.525 78.5683 292.553 86.2873C292.587 87.0403 292.622 87.8053 292.658 88.5993L293.983 88.4783C302.273 81.2783 310.35 73.1883 318.508 65.2853L318.879 61.1903Z" fill="#93ACBF"/>
<path fill-rule="evenodd" clip-rule="evenodd" d="M318.183 68.8817C311.674 75.9617 304.684 81.6137 298.042 88.1107L301.583 87.7897C307.224 83.2077 312.62 78.1967 317.842 72.6477L318.183 68.8817Z" fill="#93ACBF"/>
<path fill-rule="evenodd" clip-rule="evenodd" d="M303.295 58.3417V88.5997H305.942L306.825 58.3417H303.295Z" fill="white"/>
<path fill-rule="evenodd" clip-rule="evenodd" d="M318.709 71.6669H291.411V74.3729L318.709 75.2739V71.6669Z" fill="white"/>
<path fill-rule="evenodd" clip-rule="evenodd" d="M320.503 88.5995L288.846 90.7705L289.286 95.3245L319.953 93.8025L320.503 88.5995Z" fill="#7E6467"/>
<path fill-rule="evenodd" clip-rule="evenodd" d="M288.406 113.111C288.553 113.788 290.166 147.343 290.166 147.343L318.908 144.907L321.988 113.111H288.406Z" fill="white"/>
<path fill-rule="evenodd" clip-rule="evenodd" d="M292.658 144.496C291.891 127.512 291.507 119.582 291.303 115.817H318.993L316.592 142.327L292.658 144.496Z" fill="#7595AE"/>
<path fill-rule="evenodd" clip-rule="evenodd" d="M297.286 115.817C295.453 117.834 293.529 119.682 291.593 121.519C291.675 123.199 291.77 125.2 291.882 127.566C295.416 123.755 298.952 119.939 302.333 115.817H297.286Z" fill="#93ACBF"/>
<path fill-rule="evenodd" clip-rule="evenodd" d="M304.561 115.817C300.473 121.129 296.292 126.302 292.064 131.484C292.094 132.133 292.125 132.812 292.157 133.506C296.848 127.797 301.402 121.673 306.13 115.817H304.561Z" fill="#93ACBF"/>
<path fill-rule="evenodd" clip-rule="evenodd" d="M318.879 117.088C310.248 125.928 301.525 134.465 292.553 142.184C292.587 142.937 292.622 143.703 292.658 144.496L293.983 144.376C302.273 137.175 310.35 129.085 318.508 121.182L318.879 117.088Z" fill="#93ACBF"/>
<path fill-rule="evenodd" clip-rule="evenodd" d="M318.183 124.779C311.674 131.858 304.684 137.511 298.042 144.008L301.583 143.687C307.224 139.105 312.62 134.093 317.842 128.544L318.183 124.779Z" fill="#93ACBF"/>
<path fill-rule="evenodd" clip-rule="evenodd" d="M303.295 114.239V144.496H305.942L306.825 114.239H303.295Z" fill="white"/>
<path fill-rule="evenodd" clip-rule="evenodd" d="M318.709 127.563H291.411V130.269L318.709 131.171V127.563Z" fill="white"/>
<path fill-rule="evenodd" clip-rule="evenodd" d="M320.503 144.496L288.846 146.667L289.286 151.222L319.953 149.699L320.503 144.496Z" fill="#7E6467"/>
<path fill-rule="evenodd" clip-rule="evenodd" d="M361.651 57.2147C361.797 57.8917 363.411 91.4467 363.411 91.4467L392.153 89.0107L395.233 57.2147H361.651Z" fill="white"/>
<path fill-rule="evenodd" clip-rule="evenodd" d="M365.904 88.5995C365.138 71.6155 364.753 63.6845 364.549 59.9205H392.24L389.839 86.4295L365.904 88.5995Z" fill="#7595AE"/>
<path fill-rule="evenodd" clip-rule="evenodd" d="M370.532 59.9208C368.699 61.9368 366.775 63.7858 364.839 65.6218C364.921 67.3028 365.016 69.3038 365.128 71.6698C368.662 67.8578 372.198 64.0428 375.579 59.9208H370.532Z" fill="#93ACBF"/>
<path fill-rule="evenodd" clip-rule="evenodd" d="M377.807 59.9208C373.719 65.2328 369.538 70.4048 365.31 75.5878C365.34 76.2358 365.371 76.9158 365.403 77.6098C370.094 71.9008 374.648 65.7768 379.376 59.9208H377.807Z" fill="#93ACBF"/>
<path fill-rule="evenodd" clip-rule="evenodd" d="M392.124 61.1903C383.494 70.0313 374.771 78.5683 365.799 86.2873C365.833 87.0403 365.868 87.8053 365.903 88.5993L367.229 88.4783C375.518 81.2783 383.596 73.1883 391.753 65.2853L392.124 61.1903Z" fill="#93ACBF"/>
<path fill-rule="evenodd" clip-rule="evenodd" d="M391.428 68.8817C384.919 75.9617 377.929 81.6137 371.287 88.1107L374.828 87.7897C380.47 83.2077 385.866 78.1967 391.087 72.6477L391.428 68.8817Z" fill="#93ACBF"/>
<path fill-rule="evenodd" clip-rule="evenodd" d="M376.54 58.3417V88.5997H379.188L380.07 58.3417H376.54Z" fill="white"/>
<path fill-rule="evenodd" clip-rule="evenodd" d="M391.954 71.6669H364.655V74.3729L391.954 75.2739V71.6669Z" fill="white"/>
<path fill-rule="evenodd" clip-rule="evenodd" d="M393.748 88.5995L362.091 90.7705L362.531 95.3245L393.198 93.8025L393.748 88.5995Z" fill="#7E6467"/>
<path fill-rule="evenodd" clip-rule="evenodd" d="M361.651 113.111C361.797 113.788 363.411 147.343 363.411 147.343L392.153 144.907L395.233 113.111H361.651Z" fill="white"/>
<path fill-rule="evenodd" clip-rule="evenodd" d="M365.904 144.496C365.138 127.512 364.753 119.582 364.549 115.817H392.24L389.839 142.327L365.904 144.496Z" fill="#7595AE"/>
<path fill-rule="evenodd" clip-rule="evenodd" d="M370.532 115.817C368.699 117.834 366.775 119.682 364.839 121.519C364.921 123.199 365.016 125.2 365.128 127.566C368.662 123.755 372.198 119.939 375.579 115.817H370.532Z" fill="#93ACBF"/>
<path fill-rule="evenodd" clip-rule="evenodd" d="M377.807 115.817C373.719 121.129 369.538 126.302 365.31 131.484C365.34 132.133 365.371 132.812 365.403 133.506C370.094 127.797 374.648 121.673 379.376 115.817H377.807Z" fill="#93ACBF"/>
<path fill-rule="evenodd" clip-rule="evenodd" d="M392.124 117.088C383.494 125.928 374.771 134.465 365.799 142.184C365.833 142.937 365.868 143.703 365.903 144.496L367.229 144.376C375.518 137.175 383.596 129.085 391.753 121.182L392.124 117.088Z" fill="#93ACBF"/>
<path fill-rule="evenodd" clip-rule="evenodd" d="M391.428 124.779C384.919 131.858 377.929 137.511 371.287 144.008L374.828 143.687C380.47 139.105 385.866 134.093 391.087 128.544L391.428 124.779Z" fill="#93ACBF"/>
<path fill-rule="evenodd" clip-rule="evenodd" d="M376.54 114.239V144.496H379.188L380.07 114.239H376.54Z" fill="white"/>
<path fill-rule="evenodd" clip-rule="evenodd" d="M391.954 127.563H364.655V130.269L391.954 131.171V127.563Z" fill="white"/>
<path fill-rule="evenodd" clip-rule="evenodd" d="M393.748 144.496L362.091 146.667L362.531 151.222L393.198 149.699L393.748 144.496Z" fill="#7E6467"/>
<path fill-rule="evenodd" clip-rule="evenodd" d="M361.651 169.008C361.797 169.685 363.411 203.24 363.411 203.24L392.153 200.804L395.233 169.008H361.651Z" fill="white"/>
<path fill-rule="evenodd" clip-rule="evenodd" d="M365.904 200.393C365.138 183.41 364.753 175.479 364.549 171.714H392.24L389.839 198.224L365.904 200.393Z" fill="#7595AE"/>
<path fill-rule="evenodd" clip-rule="evenodd" d="M370.532 171.714C368.699 173.731 366.775 175.579 364.839 177.416C364.921 179.097 365.016 181.097 365.128 183.463C368.662 179.652 372.198 175.836 375.579 171.714H370.532Z" fill="#93ACBF"/>
<path fill-rule="evenodd" clip-rule="evenodd" d="M377.807 171.714C373.719 177.026 369.538 182.199 365.31 187.381C365.34 188.03 365.371 188.71 365.403 189.403C370.094 183.695 374.648 177.57 379.376 171.714H377.807Z" fill="#93ACBF"/>
<path fill-rule="evenodd" clip-rule="evenodd" d="M392.124 172.984C383.494 181.825 374.771 190.362 365.799 198.081C365.833 198.833 365.868 199.599 365.903 200.392L367.229 200.272C375.518 193.072 383.596 184.981 391.753 177.079L392.124 172.984Z" fill="#93ACBF"/>
<path fill-rule="evenodd" clip-rule="evenodd" d="M391.428 180.676C384.919 187.756 377.929 193.408 371.287 199.905L374.828 199.584C380.47 195.002 385.866 189.99 391.087 184.441L391.428 180.676Z" fill="#93ACBF"/>
<path fill-rule="evenodd" clip-rule="evenodd" d="M376.54 170.136V200.393H379.188L380.07 170.136H376.54Z" fill="white"/>
<path fill-rule="evenodd" clip-rule="evenodd" d="M391.954 183.46H364.655V186.166L391.954 187.068V183.46Z" fill="white"/>
<path fill-rule="evenodd" clip-rule="evenodd" d="M393.748 200.392L362.091 202.564L362.531 207.118L393.198 205.595L393.748 200.392Z" fill="#7E6467"/>
<path fill-rule="evenodd" clip-rule="evenodd" d="M291.015 229.839L286.693 170.216L324.191 168.164L320.275 229.839H291.015Z" fill="#888D98"/>
<path fill-rule="evenodd" clip-rule="evenodd" d="M294.161 229.839L290.315 173.405L320.574 171.749L317.1 229.839H294.161Z" fill="#F3F3F3"/>
<path fill-rule="evenodd" clip-rule="evenodd" d="M317.101 229.839L297.538 213.805L295.515 173.12L290.315 173.405L294.162 229.839H317.101Z" fill="white"/>
<path fill-rule="evenodd" clip-rule="evenodd" d="M314.957 195.698H312.098L311.292 201.888H314.957V195.698Z" fill="#7E6467"/>
<path fill-rule="evenodd" clip-rule="evenodd" d="M319.953 93.8026L299.098 101.168L289.286 95.3236L319.953 93.8026Z" fill="#DC5F4A"/>
<path fill-rule="evenodd" clip-rule="evenodd" d="M422.515 229.839H369.835C364.78 232.494 359.726 235.12 354.704 237.793H433.09L422.515 229.839Z" fill="#A4B55C"/>
<mask id="mask1" mask-type="alpha" maskUnits="userSpaceOnUse" x="244" y="229" width="126" height="15">
<path fill-rule="evenodd" clip-rule="evenodd" d="M244 229.839H369.835V243.333H244V229.839Z" fill="white"/>
</mask>
<g mask="url(#mask1)">
<path fill-rule="evenodd" clip-rule="evenodd" d="M251.614 229.839L244 237.793L314.958 236.586L313.126 243.333L326.289 236.586L324.192 243.333L339.246 234.498L335.744 241.233L346.249 237.793H354.704C359.726 235.12 364.781 232.494 369.835 229.839H251.614Z" fill="#B5D55A"/>
</g>
</svg>
