<svg width="16" height="19" viewBox="0 0 16 19" fill="none" xmlns="http://www.w3.org/2000/svg">
<path fill-rule="evenodd" clip-rule="evenodd" d="M9.62334 17.9989C10.4946 17.3123 11.3656 16.5366 12.1808 15.6851C14.5581 13.2018 16 10.5859 16 7.91667C16 3.54441 12.4183 0 8 0C3.58172 0 0 3.54441 0 7.91667C0 10.5859 1.44192 13.2018 3.81924 15.6851C4.6344 16.5366 5.5054 17.3123 6.37666 17.9989C6.68208 18.2395 6.96626 18.4523 7.22223 18.6352C7.37822 18.7467 7.49188 18.8246 7.55624 18.867C7.82496 19.0443 8.17504 19.0443 8.44376 18.867C8.50812 18.8246 8.62178 18.7467 8.77777 18.6352C9.03374 18.4523 9.31792 18.2395 9.62334 17.9989ZM11.0192 14.5962C10.2594 15.3899 9.4429 16.1171 8.62666 16.7603C8.40386 16.9358 8.19385 17.0949 8 17.2367C7.80615 17.0949 7.59614 16.9358 7.37334 16.7603C6.5571 16.1171 5.7406 15.3899 4.98076 14.5962C2.85808 12.3789 1.6 10.0964 1.6 7.91667C1.6 4.41886 4.46538 1.58333 8 1.58333C11.5346 1.58333 14.4 4.41886 14.4 7.91667C14.4 10.0964 13.1419 12.3789 11.0192 14.5962Z" fill="black"/>
<path fill-rule="evenodd" clip-rule="evenodd" d="M4.7998 7.91667C4.7998 9.66557 6.23249 11.0833 7.9998 11.0833C9.76712 11.0833 11.1998 9.66557 11.1998 7.91667C11.1998 6.16777 9.76712 4.75 7.9998 4.75C6.23249 4.75 4.7998 6.16777 4.7998 7.91667ZM9.5998 7.91667C9.5998 8.79112 8.88346 9.5 7.9998 9.5C7.11615 9.5 6.3998 8.79112 6.3998 7.91667C6.3998 7.04222 7.11615 6.33333 7.9998 6.33333C8.88346 6.33333 9.5998 7.04222 9.5998 7.91667Z" fill="black"/>
</svg>
