<svg width="400" height="246" viewBox="0 0 400 246" fill="none" xmlns="http://www.w3.org/2000/svg">
<path fill-rule="evenodd" clip-rule="evenodd" d="M241.66 119.262C241.66 121.913 243.809 124.062 246.46 124.062H298.48C301.131 124.062 303.28 121.913 303.28 119.262V67.2424C303.28 64.5914 301.131 62.4424 298.48 62.4424H246.46C243.809 62.4424 241.66 64.5914 241.66 67.2424V119.262Z" fill="#F71117"/>
<path fill-rule="evenodd" clip-rule="evenodd" d="M248.824 116.91H296.14V69.5945H248.824V116.91Z" fill="#F71117"/>
<path fill-rule="evenodd" clip-rule="evenodd" d="M254.092 111.619H290.836V74.8745H254.092V111.619Z" fill="#F71117"/>
<path fill-rule="evenodd" clip-rule="evenodd" d="M261.974 76H260.896C256.344 76 252.903 80.1226 253.718 84.6011L256.901 102.112C257.532 105.581 260.554 108.102 264.08 108.102H267.089L271.254 112.528C271.975 113.293 273.191 113.293 273.911 112.528L278.076 108.102H281.086C284.612 108.102 287.633 105.581 288.264 102.112L291.448 84.6011C292.262 80.1226 288.821 76 284.269 76H282.402V80.7421H261.974V76Z" fill="white"/>
<path fill-rule="evenodd" clip-rule="evenodd" d="M135.977 210.894H112.913L136.301 99.2825H148.289L135.977 210.894Z" fill="#8C8C8C"/>
<path fill-rule="evenodd" clip-rule="evenodd" d="M134.404 210.894H267.952V190.626H134.404V210.894Z" fill="#8C8C8C"/>
<path fill-rule="evenodd" clip-rule="evenodd" d="M267.953 194.616H184.049L193.613 140.232H256.805L267.953 194.616Z" fill="#8C8C8C"/>
<path fill-rule="evenodd" clip-rule="evenodd" d="M189.628 143.886H272.464V130.098H189.628V143.886Z" fill="#282828"/>
<path fill-rule="evenodd" clip-rule="evenodd" d="M299.348 211.035C299.348 226.395 286.904 238.839 271.556 238.839C256.184 238.839 243.728 226.395 243.728 211.035C243.728 195.687 256.184 183.243 271.556 183.243C286.904 183.243 299.348 195.687 299.348 211.035" fill="#282828"/>
<path fill-rule="evenodd" clip-rule="evenodd" d="M285.801 211.035C285.801 218.907 279.417 225.291 271.557 225.291C263.661 225.291 257.277 218.907 257.277 211.035C257.277 203.163 263.661 196.779 271.557 196.779C279.417 196.779 285.801 203.163 285.801 211.035" fill="#B7B7B7"/>
<mask id="mask0" mask-type="alpha" maskUnits="userSpaceOnUse" x="88" y="185" width="56" height="57">
<path fill-rule="evenodd" clip-rule="evenodd" d="M88 185.798H143.606V241.382H88V185.798Z" fill="white"/>
</mask>
<g mask="url(#mask0)">
<path fill-rule="evenodd" clip-rule="evenodd" d="M143.606 213.59C143.606 228.926 131.162 241.382 115.802 241.382C100.454 241.382 87.9976 228.926 87.9976 213.59C87.9976 198.242 100.454 185.798 115.802 185.798C131.162 185.798 143.606 198.242 143.606 213.59" fill="#282828"/>
</g>
<path fill-rule="evenodd" clip-rule="evenodd" d="M115.803 227.845C107.919 227.845 101.535 221.461 101.535 213.589C101.535 205.717 107.919 199.333 115.803 199.333C123.675 199.333 130.059 205.717 130.059 213.589C130.059 221.461 123.675 227.845 115.803 227.845Z" fill="#B7B7B7"/>
<mask id="mask1" mask-type="alpha" maskUnits="userSpaceOnUse" x="88" y="5" width="225" height="237">
<path fill-rule="evenodd" clip-rule="evenodd" d="M88 241.386H312.568V5.20239H88V241.386Z" fill="white"/>
</mask>
<g mask="url(#mask1)">
<path fill-rule="evenodd" clip-rule="evenodd" d="M229.192 130.098H312.568V123.486H229.192V130.098Z" fill="#8C8C8C"/>
<path fill-rule="evenodd" clip-rule="evenodd" d="M118.047 215.57L112.911 213.938L125.991 172.586L131.115 174.218L118.047 215.57Z" fill="#6D6D6D"/>
<path fill-rule="evenodd" clip-rule="evenodd" d="M271.551 167.758V179.458C254.187 179.458 240.123 193.534 240.123 210.898H228.399C228.399 187.054 247.731 167.758 271.551 167.758" fill="#BABABA"/>
<path fill-rule="evenodd" clip-rule="evenodd" d="M123.894 213.332C123.894 217.784 120.258 221.42 115.794 221.42C111.342 221.42 107.718 217.784 107.718 213.332C107.718 208.868 111.342 205.232 115.794 205.232C120.258 205.232 123.894 208.868 123.894 213.332" fill="#E2E2E2"/>
<path fill-rule="evenodd" clip-rule="evenodd" d="M279.626 210.894C279.626 215.358 276.002 218.982 271.55 218.982C267.086 218.982 263.45 215.358 263.45 210.894C263.45 206.418 267.086 202.806 271.55 202.806C276.002 202.806 279.626 206.418 279.626 210.894" fill="#E2E2E2"/>
<path fill-rule="evenodd" clip-rule="evenodd" d="M134.908 103.278H165.58V98.7304H134.908V103.278Z" fill="#6D6D6D"/>
<path fill-rule="evenodd" clip-rule="evenodd" d="M153.328 103.278H165.58V98.7304H153.328V103.278Z" fill="#282828"/>
<path fill-rule="evenodd" clip-rule="evenodd" d="M128.64 93.25V112.15C133.872 112.15 138.096 107.926 138.096 102.694C138.096 97.474 133.872 93.25 128.64 93.25" fill="#282828"/>
<path fill-rule="evenodd" clip-rule="evenodd" d="M127.084 112.146H128.644V93.2463H127.084V112.146Z" fill="#8C8C8C"/>
<path fill-rule="evenodd" clip-rule="evenodd" d="M151.14 190.328H161.496L173.508 189.176V190.328H182.628V181.232L171.048 181.352L151.14 187.016V190.328Z" fill="#332F2D"/>
<path fill-rule="evenodd" clip-rule="evenodd" d="M165.274 99.988C165.526 101.716 164.314 103.312 162.562 103.564L154.75 104.656C153.022 104.884 151.402 103.66 151.162 101.932C150.934 100.192 152.134 98.596 153.874 98.344L161.686 97.264C163.438 97.024 165.022 98.26 165.274 99.988" fill="#FFDEC5"/>
<path fill-rule="evenodd" clip-rule="evenodd" d="M208.739 49.3157L199.715 50.8277L198.167 41.5517L207.179 40.0517L208.739 49.3157Z" fill="#FFDEC5"/>
<path fill-rule="evenodd" clip-rule="evenodd" d="M168.028 130.094L162.544 118.466L226.576 116.714L225.292 130.094H168.028Z" fill="#394A63"/>
<path fill-rule="evenodd" clip-rule="evenodd" d="M182.829 182.336H171.009L162.549 118.472L178.869 121.688L182.829 182.336Z" fill="#394A63"/>
<path fill-rule="evenodd" clip-rule="evenodd" d="M226.868 118.187L203.684 118.463L195.572 50.5792L213.368 47.4832L226.868 118.187Z" fill="#637EA8"/>
<path fill-rule="evenodd" clip-rule="evenodd" d="M210.778 21.2729C212.026 27.8369 211.498 34.1729 206.698 36.3209L207.85 43.9769L198.814 45.4409C192.262 46.6529 190.15 42.2249 188.926 35.6849L185.662 35.7329L187.258 26.8289L186.682 23.7329C185.446 17.1809 189.754 10.8809 196.306 9.64488C202.87 8.40888 209.17 12.7289 210.418 19.2809L210.778 21.2729Z" fill="#FFDEC5"/>
<path fill-rule="evenodd" clip-rule="evenodd" d="M209.032 30.4372C204.592 31.4932 205.888 23.3332 201.388 24.5932C197.44 25.6972 200.728 29.2132 198.604 29.8612C195.232 30.8932 198.424 18.2812 191.344 19.3012C184.456 20.2972 189.136 16.1452 188.956 11.8732C192.892 15.0172 189.28 8.21322 195.808 6.98922C202.372 5.74122 208.708 10.0732 209.932 16.6132C209.932 16.6132 214.756 29.1052 209.032 30.4372" fill="#753A13"/>
<path fill-rule="evenodd" clip-rule="evenodd" d="M213.638 56.8625C213.806 53.7905 211.442 51.1505 208.37 50.9945C205.934 50.8625 203.798 52.3025 202.91 54.4625C202.91 54.4625 202.598 55.4945 202.55 55.8185C200.954 62.8145 191.93 94.6025 159.422 97.3025C159.614 100.602 159.638 100.974 160.406 104.058C208.082 102.45 213.614 57.1145 213.614 57.1145H213.602C213.614 57.0305 213.626 56.9585 213.638 56.8625" fill="#728EB7"/>
<path fill-rule="evenodd" clip-rule="evenodd" d="M193.024 28.0348C193.192 28.6708 192.796 29.2948 192.184 29.4628C191.56 29.6068 190.924 29.2348 190.768 28.6108C190.6 27.9748 190.972 27.3388 191.62 27.1828C192.244 27.0388 192.868 27.4108 193.024 28.0348" fill="#3F3F3F"/>
<path fill-rule="evenodd" clip-rule="evenodd" d="M193.388 25.2581L189.14 26.3141L188.96 25.5581L193.196 24.5141L193.388 25.2581Z" fill="#3F3F3F"/>
<path fill-rule="evenodd" clip-rule="evenodd" d="M151.14 188.453V190.325H161.496L173.508 189.185V190.325H182.628V188.453H151.14Z" fill="#635D5A"/>
<path fill-rule="evenodd" clip-rule="evenodd" d="M204.38 27.8475C204.752 29.3835 204.056 30.8835 202.808 31.1835C201.56 31.4955 200.24 30.4875 199.856 28.9515C199.484 27.4155 200.18 25.8915 201.428 25.6035C202.676 25.2795 203.996 26.2995 204.38 27.8475" fill="#FFEBDE"/>
<path fill-rule="evenodd" clip-rule="evenodd" d="M203.512 28.0469C203.752 28.9949 203.296 29.9189 202.552 30.1109C201.76 30.2909 200.956 29.6909 200.728 28.7309C200.488 27.7949 200.932 26.8469 201.7 26.6669C202.468 26.4749 203.26 27.0869 203.512 28.0469" fill="#F2D0B8"/>
<path fill-rule="evenodd" clip-rule="evenodd" d="M114.496 167.898V179.61C131.848 179.61 145.924 193.686 145.924 211.038H157.636C157.636 187.206 138.316 167.898 114.496 167.898" fill="#BABABA"/>
<path fill-rule="evenodd" clip-rule="evenodd" d="M194.36 5.56961C202.1 3.79361 209.816 8.61761 211.616 16.3576L183.56 22.8376C181.772 15.0976 186.608 7.35761 194.36 5.56961" fill="#4A6182"/>
<path fill-rule="evenodd" clip-rule="evenodd" d="M175.481 24.5188L185.453 22.4188L185.153 20.9548L175.181 23.0548L175.481 24.5188Z" fill="#4A6182"/>
</g>
</svg>
