<svg width="225" height="238" viewBox="0 0 225 238" fill="none" xmlns="http://www.w3.org/2000/svg">
<path fill-rule="evenodd" clip-rule="evenodd" d="M153.66 115.262C153.66 117.913 155.809 120.062 158.46 120.062H210.48C213.131 120.062 215.28 117.913 215.28 115.262V63.2424C215.28 60.5914 213.131 58.4424 210.48 58.4424H158.46C155.809 58.4424 153.66 60.5914 153.66 63.2424V115.262Z" fill="#F71117"/>
<path fill-rule="evenodd" clip-rule="evenodd" d="M160.824 112.91H208.14V65.5944H160.824V112.91Z" fill="#F71117"/>
<path fill-rule="evenodd" clip-rule="evenodd" d="M166.092 107.618H202.836V70.8744H166.092V107.618Z" fill="#F71117"/>
<path fill-rule="evenodd" clip-rule="evenodd" d="M203.448 80.6011C204.262 76.1226 200.821 72 196.269 72H172.896C168.344 72 164.903 76.1226 165.718 80.6011L168.901 98.1115C169.532 101.581 172.554 104.102 176.08 104.102H179.089L183.254 108.528C183.975 109.293 185.191 109.293 185.911 108.528L190.076 104.102H193.086C196.612 104.102 199.633 101.581 200.264 98.1115L203.448 80.6011ZM193.323 86.0449C193.323 91.1825 189.403 95.3473 184.568 95.3473C179.732 95.3473 175.813 91.1825 175.813 86.0449C175.813 80.9073 179.732 76.7425 184.568 76.7425C189.403 76.7425 193.323 80.9073 193.323 86.0449ZM184.568 93.4868C188.436 93.4868 191.572 90.155 191.572 86.0449C191.572 81.9349 188.436 78.603 184.568 78.603C180.699 78.603 177.564 81.9349 177.564 86.0449C177.564 90.155 180.699 93.4868 184.568 93.4868Z" fill="white"/>
<path fill-rule="evenodd" clip-rule="evenodd" d="M47.9772 206.894H24.9132L48.3012 95.2824H60.2892L47.9772 206.894Z" fill="#8C8C8C"/>
<path fill-rule="evenodd" clip-rule="evenodd" d="M46.404 206.894H179.952V186.626H46.404V206.894Z" fill="#8C8C8C"/>
<path fill-rule="evenodd" clip-rule="evenodd" d="M179.953 190.616H96.0492L105.613 136.232H168.805L179.953 190.616Z" fill="#8C8C8C"/>
<path fill-rule="evenodd" clip-rule="evenodd" d="M101.628 139.886H184.464V126.098H101.628V139.886Z" fill="#282828"/>
<path fill-rule="evenodd" clip-rule="evenodd" d="M211.348 207.035C211.348 222.395 198.904 234.839 183.556 234.839C168.184 234.839 155.728 222.395 155.728 207.035C155.728 191.687 168.184 179.243 183.556 179.243C198.904 179.243 211.348 191.687 211.348 207.035Z" fill="#282828"/>
<path fill-rule="evenodd" clip-rule="evenodd" d="M197.801 207.035C197.801 214.907 191.417 221.291 183.557 221.291C175.661 221.291 169.277 214.907 169.277 207.035C169.277 199.163 175.661 192.779 183.557 192.779C191.417 192.779 197.801 199.163 197.801 207.035Z" fill="#B7B7B7"/>
<mask id="mask0" mask-type="alpha" maskUnits="userSpaceOnUse" x="0" y="181" width="56" height="57">
<path fill-rule="evenodd" clip-rule="evenodd" d="M0 181.798H55.6056V237.382H0V181.798Z" fill="white"/>
</mask>
<g mask="url(#mask0)">
<path fill-rule="evenodd" clip-rule="evenodd" d="M55.6056 209.59C55.6056 224.926 43.1616 237.382 27.8016 237.382C12.4536 237.382 -0.00241089 224.926 -0.00241089 209.59C-0.00241089 194.242 12.4536 181.798 27.8016 181.798C43.1616 181.798 55.6056 194.242 55.6056 209.59Z" fill="#282828"/>
</g>
<path fill-rule="evenodd" clip-rule="evenodd" d="M27.8028 223.846C19.9188 223.846 13.5348 217.462 13.5348 209.59C13.5348 201.718 19.9188 195.334 27.8028 195.334C35.6748 195.334 42.0588 201.718 42.0588 209.59C42.0588 217.462 35.6748 223.846 27.8028 223.846Z" fill="#B7B7B7"/>
<mask id="mask1" mask-type="alpha" maskUnits="userSpaceOnUse" x="0" y="1" width="225" height="237">
<path fill-rule="evenodd" clip-rule="evenodd" d="M0 237.386H224.568V1.20239H0V237.386Z" fill="white"/>
</mask>
<g mask="url(#mask1)">
<path fill-rule="evenodd" clip-rule="evenodd" d="M141.192 126.098H224.568V119.486H141.192V126.098Z" fill="#8C8C8C"/>
<path fill-rule="evenodd" clip-rule="evenodd" d="M30.0468 211.57L24.9108 209.938L37.9908 168.586L43.1148 170.218L30.0468 211.57Z" fill="#6D6D6D"/>
<path fill-rule="evenodd" clip-rule="evenodd" d="M183.551 163.758V175.458C166.187 175.458 152.123 189.534 152.123 206.898H140.399C140.399 183.054 159.731 163.758 183.551 163.758Z" fill="#BABABA"/>
<path fill-rule="evenodd" clip-rule="evenodd" d="M35.8944 209.332C35.8944 213.784 32.2584 217.42 27.7944 217.42C23.3424 217.42 19.7184 213.784 19.7184 209.332C19.7184 204.868 23.3424 201.232 27.7944 201.232C32.2584 201.232 35.8944 204.868 35.8944 209.332Z" fill="#E2E2E2"/>
<path fill-rule="evenodd" clip-rule="evenodd" d="M191.626 206.894C191.626 211.358 188.002 214.982 183.55 214.982C179.086 214.982 175.45 211.358 175.45 206.894C175.45 202.418 179.086 198.806 183.55 198.806C188.002 198.806 191.626 202.418 191.626 206.894Z" fill="#E2E2E2"/>
<path fill-rule="evenodd" clip-rule="evenodd" d="M46.908 99.2784H77.58V94.7304H46.908V99.2784Z" fill="#6D6D6D"/>
<path fill-rule="evenodd" clip-rule="evenodd" d="M65.328 99.2784H77.58V94.7304H65.328V99.2784Z" fill="#282828"/>
<path fill-rule="evenodd" clip-rule="evenodd" d="M40.6404 89.25V108.15C45.8724 108.15 50.0964 103.926 50.0964 98.694C50.0964 93.474 45.8724 89.25 40.6404 89.25Z" fill="#282828"/>
<path fill-rule="evenodd" clip-rule="evenodd" d="M39.084 108.146H40.644V89.2464H39.084V108.146Z" fill="#8C8C8C"/>
<path fill-rule="evenodd" clip-rule="evenodd" d="M63.1404 186.328H73.4964L85.5084 185.176V186.328H94.6284V177.232L83.0484 177.352L63.1404 183.016V186.328Z" fill="#332F2D"/>
<path fill-rule="evenodd" clip-rule="evenodd" d="M77.274 95.988C77.526 97.716 76.314 99.312 74.562 99.564L66.75 100.656C65.022 100.884 63.402 99.66 63.162 97.932C62.934 96.192 64.134 94.596 65.874 94.344L73.686 93.264C75.438 93.024 77.022 94.26 77.274 95.988Z" fill="#FFDEC5"/>
<path fill-rule="evenodd" clip-rule="evenodd" d="M120.739 45.3156L111.715 46.8276L110.167 37.5516L119.179 36.0516L120.739 45.3156Z" fill="#FFDEC5"/>
<path fill-rule="evenodd" clip-rule="evenodd" d="M80.028 126.094L74.544 114.466L138.576 112.714L137.292 126.094H80.028Z" fill="#394A63"/>
<path fill-rule="evenodd" clip-rule="evenodd" d="M94.8288 178.336H83.0088L74.5488 114.472L90.8688 117.688L94.8288 178.336Z" fill="#394A63"/>
<path fill-rule="evenodd" clip-rule="evenodd" d="M138.868 114.187L115.684 114.463L107.572 46.5792L125.368 43.4832L138.868 114.187Z" fill="#637EA8"/>
<path fill-rule="evenodd" clip-rule="evenodd" d="M122.778 17.2728C124.026 23.8368 123.498 30.1728 118.698 32.3208L119.85 39.9768L110.814 41.4408C104.262 42.6528 102.15 38.2248 100.926 31.6848L97.662 31.7328L99.258 22.8288L98.682 19.7328C97.446 13.1808 101.754 6.88082 108.306 5.64482C114.87 4.40882 121.17 8.72882 122.418 15.2808L122.778 17.2728Z" fill="#FFDEC5"/>
<path fill-rule="evenodd" clip-rule="evenodd" d="M121.032 26.4372C116.592 27.4932 117.888 19.3332 113.388 20.5932C109.44 21.6972 112.728 25.2132 110.604 25.8612C107.232 26.8932 110.424 14.2812 103.344 15.3012C96.456 16.2972 101.136 12.1452 100.956 7.87322C104.892 11.0172 101.28 4.21322 107.808 2.98922C114.372 1.74122 120.708 6.07322 121.932 12.6132C121.932 12.6132 126.756 25.1052 121.032 26.4372Z" fill="#753A13"/>
<path fill-rule="evenodd" clip-rule="evenodd" d="M125.638 52.8624C125.806 49.7904 123.442 47.1504 120.37 46.9944C117.934 46.8624 115.798 48.3024 114.91 50.4624C114.91 50.4624 114.598 51.4944 114.55 51.8184C112.954 58.8144 103.93 90.6024 71.4216 93.3024C71.6136 96.6024 71.6376 96.9744 72.4056 100.058C120.082 98.4504 125.614 53.1144 125.614 53.1144H125.602C125.614 53.0304 125.626 52.9584 125.638 52.8624Z" fill="#728EB7"/>
<path fill-rule="evenodd" clip-rule="evenodd" d="M105.024 24.0348C105.192 24.6708 104.796 25.2948 104.184 25.4628C103.56 25.6068 102.924 25.2348 102.768 24.6108C102.6 23.9748 102.972 23.3388 103.62 23.1828C104.244 23.0388 104.868 23.4108 105.024 24.0348Z" fill="#3F3F3F"/>
<path fill-rule="evenodd" clip-rule="evenodd" d="M105.388 21.258L101.14 22.314L100.96 21.558L105.196 20.514L105.388 21.258Z" fill="#3F3F3F"/>
<path fill-rule="evenodd" clip-rule="evenodd" d="M63.1404 184.453V186.325H73.4964L85.5084 185.185V186.325H94.6284V184.453H63.1404Z" fill="#635D5A"/>
<path fill-rule="evenodd" clip-rule="evenodd" d="M116.38 23.8476C116.752 25.3836 116.056 26.8836 114.808 27.1836C113.56 27.4956 112.24 26.4876 111.856 24.9516C111.484 23.4156 112.18 21.8916 113.428 21.6036C114.676 21.2796 115.996 22.2996 116.38 23.8476Z" fill="#FFEBDE"/>
<path fill-rule="evenodd" clip-rule="evenodd" d="M115.512 24.0468C115.752 24.9948 115.296 25.9188 114.552 26.1108C113.76 26.2908 112.956 25.6908 112.728 24.7308C112.488 23.7948 112.932 22.8468 113.7 22.6668C114.468 22.4748 115.26 23.0868 115.512 24.0468Z" fill="#F2D0B8"/>
<path fill-rule="evenodd" clip-rule="evenodd" d="M26.496 163.898V175.61C43.848 175.61 57.924 189.686 57.924 207.038H69.636C69.636 183.206 50.316 163.898 26.496 163.898Z" fill="#BABABA"/>
<path fill-rule="evenodd" clip-rule="evenodd" d="M106.36 1.56961C114.1 -0.206391 121.816 4.61761 123.616 12.3576L95.5596 18.8376C93.7716 11.0976 98.6076 3.35761 106.36 1.56961Z" fill="#4A6182"/>
<path fill-rule="evenodd" clip-rule="evenodd" d="M87.4812 20.5188L97.4532 18.4188L97.1532 16.9548L87.1812 19.0548L87.4812 20.5188Z" fill="#4A6182"/>
</g>
</svg>
