<svg width="406" height="224" viewBox="0 0 406 224" fill="none" xmlns="http://www.w3.org/2000/svg">
<path fill-rule="evenodd" clip-rule="evenodd" d="M81.344 88.087C81.7664 90.0454 83.6864 91.287 85.6192 90.8774L94.4128 89.0214C96.3456 88.6118 97.6128 86.7046 97.1776 84.7462C96.768 82.8006 94.848 81.559 92.9024 81.9686L84.1472 83.8118C82.1888 84.2214 80.9472 86.1414 81.344 88.087Z" fill="#FFDEC5"/>
<path fill-rule="evenodd" clip-rule="evenodd" d="M19.2563 62.0992C17.9251 59.0656 19.3331 55.5456 22.3667 54.24C24.7859 53.2032 27.4739 53.8816 29.1251 55.712C29.1251 55.712 29.8419 56.6336 30.0211 56.9536C34.1811 63.392 55.0067 92 88.6963 82.6944C89.7203 86.0736 89.8483 86.4576 90.1811 89.8368C41.6819 105.85 19.3587 62.3552 19.3587 62.3552L19.3715 62.3296C19.3459 62.2528 19.2819 62.176 19.2563 62.0992Z" fill="#506A91"/>
<mask id="mask0" mask-type="alpha" maskUnits="userSpaceOnUse" x="0" y="0" width="131" height="224">
<path fill-rule="evenodd" clip-rule="evenodd" d="M0 223.03H130.112V0.00256348H0V223.03Z" fill="white"/>
</mask>
<g mask="url(#mask0)">
<path fill-rule="evenodd" clip-rule="evenodd" d="M64.3968 114.588C64.3968 117.416 66.6891 119.708 69.5168 119.708H124.992C127.82 119.708 130.112 117.416 130.112 114.588V59.1002C130.112 56.2725 127.82 53.9802 124.992 53.9802H69.5168C66.6891 53.9802 64.3968 56.2725 64.3968 59.1002V114.588Z" fill="#F71117"/>
<path fill-rule="evenodd" clip-rule="evenodd" d="M72.0128 112.079H122.483V61.6089H72.0128V112.079Z" fill="#F71117"/>
<path fill-rule="evenodd" clip-rule="evenodd" d="M77.6448 106.435H116.838V67.2281H77.6448V106.435Z" fill="#F71117"/>
<path fill-rule="evenodd" clip-rule="evenodd" d="M86.5418 69.12H85.4528C80.8529 69.12 77.3761 73.286 78.1989 77.8117L81.4161 95.5064C82.0535 99.0121 85.1068 101.56 88.67 101.56H91.7112L95.9202 106.032C96.648 106.806 97.8769 106.806 98.6047 106.032L102.814 101.56H105.855C109.418 101.56 112.471 99.0121 113.109 95.5064L116.326 77.8117C117.149 73.286 113.672 69.12 109.072 69.12H107.186V73.9126H97.2982L97.2474 73.9124L97.1966 73.9126H86.5418V69.12Z" fill="white"/>
<path fill-rule="evenodd" clip-rule="evenodd" d="M45.2698 223.03H34.1978L21.3082 221.788V223.03H11.5674V213.289L23.9578 213.417L45.2698 219.484V223.03Z" fill="#332F2D"/>
<path fill-rule="evenodd" clip-rule="evenodd" d="M79.4445 96.1549C79.5981 98.0365 81.2365 99.4317 83.0925 99.2909L91.5277 98.6253C93.4093 98.4845 94.7917 96.8461 94.6381 94.9773C94.5101 93.1085 92.8717 91.6877 91.0029 91.8413L82.5677 92.5069C80.7117 92.6477 79.2909 94.2861 79.4445 96.1549Z" fill="#FFDEC5"/>
<path fill-rule="evenodd" clip-rule="evenodd" d="M23.4573 44.8743L33.0061 47.0247L35.2205 37.2071L25.6589 35.0567L23.4573 44.8743Z" fill="#FFDEC5"/>
<path fill-rule="evenodd" clip-rule="evenodd" d="M9.56928 213.755H24.9933V117.448H-0.00511932L9.56928 213.755Z" fill="#394A63"/>
<path fill-rule="evenodd" clip-rule="evenodd" d="M0 117.449L24.7424 119.126L37.4528 47.0234L18.6112 42.6586L0 117.449Z" fill="#637EA8"/>
<path fill-rule="evenodd" clip-rule="evenodd" d="M22.9312 14.761C21.2032 21.6986 21.3824 28.521 26.4 31.1066L24.7232 39.209L34.2976 41.3082C41.2352 43.0234 43.7312 38.4026 45.4336 31.465L48.928 31.721L47.7376 22.1082L48.544 18.8314C50.2592 11.9066 46.0224 4.89216 39.0976 3.18976C32.1472 1.48736 25.1456 5.72416 23.4432 12.649L22.9312 14.761Z" fill="#FFDEC5"/>
<path fill-rule="evenodd" clip-rule="evenodd" d="M24.2445 24.6797C28.9165 26.0493 28.0205 17.2685 32.7565 18.8813C36.9165 20.3021 33.2045 23.8605 35.4445 24.6797C38.9901 25.9981 36.3021 12.3021 43.8029 13.8253C51.0989 15.2973 43.2141 11.4957 43.6621 6.95169C39.2717 10.0621 46.6829 2.08769 39.7453 0.385293C32.8205 -1.32991 25.8061 2.91969 24.1037 9.84449C24.1037 9.84449 18.2157 22.9005 24.2445 24.6797Z" fill="#753A13"/>
<path fill-rule="evenodd" clip-rule="evenodd" d="M18.9696 62.1363C18.0992 58.9491 19.9552 55.6595 23.1296 54.7635C25.664 54.0723 28.2496 55.1091 29.6576 57.1571C29.6576 57.1571 30.2336 58.1555 30.336 58.5011C33.6128 65.4515 50.3296 96.6323 84.9408 92.0243C85.504 95.5059 85.5808 95.9155 85.4656 99.3075C35.2256 108.549 19.0464 62.3923 19.0464 62.3923L19.072 62.3795C19.0336 62.2899 18.9952 62.2259 18.9696 62.1363Z" fill="#728EB7"/>
<path fill-rule="evenodd" clip-rule="evenodd" d="M41.4938 23.0553C41.289 23.7209 41.6858 24.4121 42.3258 24.617C42.9914 24.8218 43.6954 24.4506 43.8874 23.7977C44.105 23.1322 43.721 22.4282 43.0682 22.2362C42.4026 22.0314 41.7114 22.4025 41.4938 23.0553Z" fill="#3F3F3F"/>
<path fill-rule="evenodd" clip-rule="evenodd" d="M41.2813 20.0614L45.7741 21.431L46.0173 20.6502L41.5373 19.2678L41.2813 20.0614Z" fill="#3F3F3F"/>
<path fill-rule="evenodd" clip-rule="evenodd" d="M45.2698 221.024V223.034H34.1978L21.3082 221.792V223.034H11.5674V221.024H45.2698Z" fill="#635D5A"/>
<path fill-rule="evenodd" clip-rule="evenodd" d="M29.3811 22.167C28.9075 23.8054 29.5603 25.4438 30.8659 25.8406C32.1843 26.2502 33.6435 25.2518 34.1555 23.6262C34.6547 21.9878 33.9891 20.3494 32.6707 19.9398C31.3395 19.5302 29.8803 20.5414 29.3811 22.167Z" fill="#FFEBDE"/>
<path fill-rule="evenodd" clip-rule="evenodd" d="M30.2938 22.4422C29.9994 23.4534 30.409 24.4646 31.2026 24.7078C32.0218 24.9638 32.9178 24.3366 33.225 23.3382C33.545 22.3398 33.1482 21.3286 32.3162 21.0854C31.5098 20.8294 30.6138 21.4438 30.2938 22.4422Z" fill="#F2D0B8"/>
<path fill-rule="evenodd" clip-rule="evenodd" d="M39.9437 0.398089C31.6877 -1.50911 23.4445 3.63649 21.5373 11.9053L51.4509 18.8173C53.3581 10.5485 48.2125 2.30529 39.9437 0.398089Z" fill="#4A6182"/>
<path fill-rule="evenodd" clip-rule="evenodd" d="M60.0691 20.599L49.4323 18.359L49.7651 16.7974L60.3891 19.0502L60.0691 20.599Z" fill="#4A6182"/>
</g>
<path fill-rule="evenodd" clip-rule="evenodd" d="M190.168 223.654H385.132V64.438H190.168V223.654ZM198.184 212.866H258.484V104.854H198.184V212.866ZM267.052 178.99H377.2V106.222H267.052V178.99Z" fill="#BFBFBF"/>
<path fill-rule="evenodd" clip-rule="evenodd" d="M172 91.882H405.892V21.214H172V91.882Z" fill="white"/>
<path fill-rule="evenodd" clip-rule="evenodd" d="M172 91.882H192.16V21.214H172V91.882Z" fill="#F71117"/>
<path fill-rule="evenodd" clip-rule="evenodd" d="M214.6 91.882H234.796V21.214H214.6V91.882Z" fill="#F71117"/>
<path fill-rule="evenodd" clip-rule="evenodd" d="M257.248 91.882H277.42V21.214H257.248V91.882Z" fill="#F71117"/>
<path fill-rule="evenodd" clip-rule="evenodd" d="M299.872 91.882H320.056V21.214H299.872V91.882Z" fill="#F71117"/>
<path fill-rule="evenodd" clip-rule="evenodd" d="M342.496 91.882H362.668V21.214H342.496V91.882Z" fill="#F71117"/>
<path fill-rule="evenodd" clip-rule="evenodd" d="M385.132 91.882H405.304V21.214H385.132V91.882Z" fill="#F71117"/>
<path fill-rule="evenodd" clip-rule="evenodd" d="M172 21.214H405.304V16.786H172V21.214Z" fill="#D81E00"/>
<path fill-rule="evenodd" clip-rule="evenodd" d="M172 99.898H405.304V86.986H172V99.898Z" fill="#D5060C"/>
<path fill-rule="evenodd" clip-rule="evenodd" d="M198.196 212.866H258.484V104.854H198.196V212.866Z" fill="#BFBFBF"/>
<path fill-rule="evenodd" clip-rule="evenodd" d="M198.856 212.194H257.8V105.538H198.856V212.194ZM197.512 211.55C197.512 212.655 198.407 213.55 199.512 213.55H257.168C258.273 213.55 259.168 212.655 259.168 211.55V106.182C259.168 105.077 258.273 104.182 257.168 104.182H199.512C198.407 104.182 197.512 105.077 197.512 106.182V211.55Z" fill="#BFBFBF"/>
<path fill-rule="evenodd" clip-rule="evenodd" d="M203.468 212.574L196 109.546L260.797 106L254.03 212.574H203.468Z" fill="#7E7777"/>
<path fill-rule="evenodd" clip-rule="evenodd" d="M208.906 212.574L202.26 115.056L254.547 112.195L248.544 212.574H208.906Z" fill="#FAFAFA"/>
<path fill-rule="evenodd" clip-rule="evenodd" d="M248.545 212.574L214.74 184.868L211.244 114.564L202.259 115.056L208.906 212.574H248.545Z" fill="#F1F1F1"/>
<path fill-rule="evenodd" clip-rule="evenodd" d="M244.841 153.579H239.901L238.508 164.276H244.841V153.579Z" fill="#7E7777"/>
<path fill-rule="evenodd" clip-rule="evenodd" d="M267.04 178.99H377.188V106.222H267.04V178.99Z" fill="#BFBFBF"/>
<path fill-rule="evenodd" clip-rule="evenodd" d="M377 183V118L267 109V183" fill="white"/>
<path d="M377 183V118L267 109V183" stroke="#7E7777" stroke-width="6"/>
<path fill-rule="evenodd" clip-rule="evenodd" d="M270 112V183H363L270 112Z" fill="#F7F7F7"/>
<path fill-rule="evenodd" clip-rule="evenodd" d="M284 119L359 176H366L293 119H284Z" fill="#F7F7F7"/>
</svg>
