<svg width="400" height="246" viewBox="0 0 400 246" fill="none" xmlns="http://www.w3.org/2000/svg">
<path fill-rule="evenodd" clip-rule="evenodd" d="M88.9383 96.0139C89.2911 97.7039 90.8947 98.7753 92.509 98.4219L99.8533 96.8203C101.468 96.4668 102.526 94.821 102.163 93.131C101.82 91.4521 100.217 90.3807 98.5919 90.7341L91.2795 92.3247C89.6439 92.6781 88.6069 94.335 88.9383 96.0139" fill="#FFDEC5"/>
<path fill-rule="evenodd" clip-rule="evenodd" d="M37.0828 73.5879C35.971 70.9701 37.147 67.9325 39.6806 66.8059C41.7011 65.9112 43.9462 66.4966 45.3252 68.0761C45.3252 68.0761 45.9239 68.8714 46.0736 69.1476C49.548 74.7035 66.9415 99.3904 95.079 91.3603C95.9342 94.2763 96.0411 94.6077 96.3191 97.5237C55.8126 111.342 37.1684 73.8088 37.1684 73.8088L37.179 73.7867C37.1577 73.7204 37.1042 73.6542 37.0828 73.5879" fill="#506A91"/>
<mask id="mask0" mask-type="alpha" maskUnits="userSpaceOnUse" x="21" y="20" width="109" height="193">
<path fill-rule="evenodd" clip-rule="evenodd" d="M21 212.461H129.669V20.0024H21V212.461Z" fill="white"/>
</mask>
<g mask="url(#mask0)">
<path fill-rule="evenodd" clip-rule="evenodd" d="M74.7841 118.181C74.7841 121.009 77.0764 123.301 79.9041 123.301H124.549C127.377 123.301 129.669 121.009 129.669 118.181V71.7018C129.669 68.8741 127.377 66.5818 124.549 66.5818H79.9041C77.0764 66.5818 74.7841 68.8741 74.7841 71.7018V118.181Z" fill="#F71117"/>
<path fill-rule="evenodd" clip-rule="evenodd" d="M81.1449 116.718H123.298V73.165H81.1449V116.718Z" fill="#F71117"/>
<path fill-rule="evenodd" clip-rule="evenodd" d="M85.8488 111.847H118.583V78.0139H85.8488V111.847Z" fill="#F71117"/>
<path fill-rule="evenodd" clip-rule="evenodd" d="M93.2795 79.6627C88.9452 79.948 85.7486 83.9477 86.5139 88.2971L88.8453 101.545C89.4656 105.07 92.5276 107.64 96.1065 107.64H97.5969L100.871 111.234C101.602 112.037 102.865 112.037 103.596 111.234L106.87 107.64H108.36C111.939 107.64 115.001 105.07 115.621 101.545L117.953 88.2971C118.747 83.7835 115.275 79.6465 110.692 79.6465H110.521V83.7821H93.2795V79.6627Z" fill="white"/>
<path fill-rule="evenodd" clip-rule="evenodd" d="M58.8092 212.461H49.5619L38.7965 211.39V212.461H30.661V204.056L41.0095 204.166L58.8092 209.402V212.461Z" fill="#332F2D"/>
<path fill-rule="evenodd" clip-rule="evenodd" d="M87.3518 102.976C87.4801 104.6 88.8485 105.804 90.3986 105.682L97.4437 105.108C99.0152 104.986 100.17 103.572 100.042 101.96C99.9346 100.347 98.5662 99.121 97.0054 99.2536L89.9603 99.8279C88.4102 99.9494 87.2236 101.363 87.3518 102.976" fill="#FFDEC5"/>
<path fill-rule="evenodd" clip-rule="evenodd" d="M40.5915 58.724L48.5666 60.5797L50.4161 52.1077L42.4302 50.252L40.5915 58.724Z" fill="#FFDEC5"/>
<path fill-rule="evenodd" clip-rule="evenodd" d="M28.9922 204.458H41.8743V121.35H20.9957L28.9922 204.458Z" fill="#394A63"/>
<path fill-rule="evenodd" clip-rule="evenodd" d="M21 121.352L41.6648 122.798L52.2805 60.5786L36.544 56.812L21 121.352Z" fill="#637EA8"/>
<path fill-rule="evenodd" clip-rule="evenodd" d="M40.1521 32.7383C38.7089 38.725 38.8585 44.6123 43.0492 46.8436L41.6488 53.8354L49.6453 55.6469C55.4395 57.127 57.5242 53.1396 58.946 47.1528L61.8646 47.3737L60.8703 39.0785L61.5438 36.2508C62.9764 30.2751 59.4378 24.2221 53.6542 22.7531C47.8493 21.284 42.0016 24.9401 40.5797 30.9158L40.1521 32.7383Z" fill="#FFDEC5"/>
<path fill-rule="evenodd" clip-rule="evenodd" d="M41.2489 41.2972C45.151 42.479 44.4026 34.9017 48.3581 36.2935C51.8326 37.5196 48.7323 40.5902 50.6032 41.2972C53.5644 42.4349 51.3194 30.6161 57.5841 31.9305C63.6777 33.2007 57.0923 29.9202 57.4665 25.999C53.7996 28.6831 59.9894 21.8017 54.1952 20.3326C48.4116 18.8525 42.5532 22.5196 41.1313 28.4953C41.1313 28.4953 36.2137 39.7618 41.2489 41.2972" fill="#753A13"/>
<path fill-rule="evenodd" clip-rule="evenodd" d="M36.8434 73.62C36.1164 70.8696 37.6665 68.0309 40.3178 67.2577C42.4345 66.6612 44.594 67.5559 45.77 69.3232C45.77 69.3232 46.251 70.1848 46.3366 70.483C49.0733 76.4808 63.0352 103.388 91.9424 99.4115C92.4127 102.416 92.4769 102.769 92.3807 105.696C50.4203 113.671 36.9075 73.8409 36.9075 73.8409L36.9289 73.8298C36.8968 73.7525 36.8647 73.6973 36.8434 73.62" fill="#728EB7"/>
<path fill-rule="evenodd" clip-rule="evenodd" d="M55.6555 39.8956C55.4844 40.47 55.8158 41.0664 56.3504 41.2432C56.9063 41.4199 57.4943 41.0996 57.6546 40.5362C57.8364 39.9619 57.5156 39.3544 56.9704 39.1887C56.4145 39.0119 55.8372 39.3323 55.6555 39.8956" fill="#3F3F3F"/>
<path fill-rule="evenodd" clip-rule="evenodd" d="M55.478 37.3119L59.2304 38.4938L59.4335 37.82L55.6918 36.627L55.478 37.3119Z" fill="#3F3F3F"/>
<path fill-rule="evenodd" clip-rule="evenodd" d="M58.8092 210.73V212.465H49.5619L38.7965 211.393V212.465H30.661V210.73H58.8092Z" fill="#635D5A"/>
<path fill-rule="evenodd" clip-rule="evenodd" d="M45.539 39.1289C45.1435 40.5427 45.6887 41.9565 46.7791 42.2989C47.8803 42.6524 49.099 41.7908 49.5266 40.3881C49.9435 38.9742 49.3876 37.5604 48.2865 37.2069C47.1747 36.8535 45.956 37.7261 45.539 39.1289" fill="#FFEBDE"/>
<path fill-rule="evenodd" clip-rule="evenodd" d="M46.3013 39.3666C46.0554 40.2392 46.3975 41.1118 47.0603 41.3217C47.7445 41.5426 48.4928 41.0014 48.7494 40.1398C49.0167 39.2783 48.6853 38.4057 47.9904 38.1958C47.3169 37.9749 46.5685 38.5051 46.3013 39.3666" fill="#F2D0B8"/>
<path fill-rule="evenodd" clip-rule="evenodd" d="M54.3609 20.3437C47.4655 18.6979 40.5808 23.1382 38.9879 30.2737L63.9717 36.2383C65.5645 29.1028 61.2669 21.9895 54.3609 20.3437" fill="#4A6182"/>
<path fill-rule="evenodd" clip-rule="evenodd" d="M71.1696 37.7759L62.2857 35.8429L62.5637 34.4953L71.4368 36.4394L71.1696 37.7759Z" fill="#4A6182"/>
</g>
<path fill-rule="evenodd" clip-rule="evenodd" d="M179.828 213H342.661V75.6064H179.828V213ZM186.523 203.691H236.885V110.483H186.523V203.691ZM244.041 174.458H336.037V111.663H244.041V174.458Z" fill="#BFBFBF"/>
<path fill-rule="evenodd" clip-rule="evenodd" d="M164.654 99.289H360V38.3069H164.654V99.289Z" fill="white"/>
<path fill-rule="evenodd" clip-rule="evenodd" d="M164.654 99.289H181.492V38.3069H164.654V99.289Z" fill="#F71117"/>
<path fill-rule="evenodd" clip-rule="evenodd" d="M200.233 99.289H217.101V38.3069H200.233V99.289Z" fill="#F71117"/>
<path fill-rule="evenodd" clip-rule="evenodd" d="M235.853 99.289H252.7V38.3069H235.853V99.289Z" fill="#F71117"/>
<path fill-rule="evenodd" clip-rule="evenodd" d="M271.452 99.289H288.31V38.3069H271.452V99.289Z" fill="#F71117"/>
<path fill-rule="evenodd" clip-rule="evenodd" d="M307.052 99.289H323.899V38.3069H307.052V99.289Z" fill="#F71117"/>
<path fill-rule="evenodd" clip-rule="evenodd" d="M342.661 99.289H359.509V38.3069H342.661V99.289Z" fill="#F71117"/>
<path fill-rule="evenodd" clip-rule="evenodd" d="M164.654 38.3067H359.509V34.4856H164.654V38.3067Z" fill="#D81E00"/>
<path fill-rule="evenodd" clip-rule="evenodd" d="M164.654 106.206H359.509V95.064H164.654V106.206Z" fill="#D5060C"/>
<path fill-rule="evenodd" clip-rule="evenodd" d="M186.533 203.691H236.885V110.483H186.533V203.691Z" fill="#BFBFBF"/>
<path fill-rule="evenodd" clip-rule="evenodd" d="M187.084 203.111H236.314V111.073H187.084V203.111ZM185.962 202.281C185.962 203.385 186.857 204.281 187.962 204.281H235.456C236.561 204.281 237.456 203.385 237.456 202.281V111.903C237.456 110.798 236.561 109.903 235.456 109.903H187.962C186.857 109.903 185.962 110.798 185.962 111.903V202.281Z" fill="#BFBFBF"/>
<path fill-rule="evenodd" clip-rule="evenodd" d="M190.936 203.439L184.699 114.532L238.817 111.472L233.165 203.439H190.936Z" fill="#7E7777"/>
<path fill-rule="evenodd" clip-rule="evenodd" d="M195.477 203.439L189.927 119.287L233.597 116.818L228.583 203.439H195.477Z" fill="#FAFAFA"/>
<path fill-rule="evenodd" clip-rule="evenodd" d="M228.584 203.439L200.35 179.53L197.431 118.862L189.926 119.287L195.478 203.439H228.584Z" fill="#F1F1F1"/>
<path fill-rule="evenodd" clip-rule="evenodd" d="M225.491 152.53H221.364L220.201 161.76H225.491V152.53Z" fill="#7E7777"/>
<path fill-rule="evenodd" clip-rule="evenodd" d="M244.031 174.458H336.027V111.663H244.031V174.458Z" fill="#BFBFBF"/>
<path fill-rule="evenodd" clip-rule="evenodd" d="M335.869 177.918V121.827L243.998 114.061V177.918" fill="white"/>
<path d="M335.869 177.918V121.827L243.998 114.061V177.918" stroke="#7E7777" stroke-width="6"/>
<path fill-rule="evenodd" clip-rule="evenodd" d="M246.503 116.649V177.918H324.177L246.503 116.649Z" fill="#F7F7F7"/>
<path fill-rule="evenodd" clip-rule="evenodd" d="M258.196 122.69L320.836 171.877H326.682L265.713 122.69H258.196Z" fill="#F7F7F7"/>
</svg>
