<svg width="20" height="22" viewBox="0 0 20 22" fill="none" xmlns="http://www.w3.org/2000/svg">
<path d="M1 6C0.447715 6 0 5.55228 0 5C0 4.44772 0.447715 4 1 4H19C19.5523 4 20 4.44772 20 5C20 5.55228 19.5523 6 19 6H1Z" fill="black"/>
<path fill-rule="evenodd" clip-rule="evenodd" d="M6 6C6.55228 6 7 5.55228 7 5V3C7 2.44772 7.44772 2 8 2H12C12.5523 2 13 2.44772 13 3V5C13 5.55228 13.4477 6 14 6C14.5523 6 15 5.55228 15 5V3C15 1.34315 13.6569 0 12 0H8C6.34315 0 5 1.34315 5 3V5C5 5.55228 5.44772 6 6 6ZM17 4C16.4477 4 16 4.44772 16 5V19C16 19.5523 15.5523 20 15 20H5C4.44772 20 4 19.5523 4 19V5C4 4.44772 3.55228 4 3 4C2.44772 4 2 4.44772 2 5V19C2 20.6569 3.34315 22 5 22H15C16.6569 22 18 20.6569 18 19V5C18 4.44772 17.5523 4 17 4Z" fill="black"/>
</svg>
