<svg width="25" height="32" viewBox="0 0 25 32" fill="none" xmlns="http://www.w3.org/2000/svg">
<path d="M12.06 15.4056C15.5623 15.4056 18.4017 11.9569 18.4017 7.70283C18.4017 3.44862 17.4695 0 12.06 0C6.65055 0 5.71815 3.44862 5.71815 7.70283C5.71815 11.9569 8.55756 15.4056 12.06 15.4056Z" fill="white"/>
<path d="M0.086879 27.1668C0.085679 26.9074 0.084479 27.0937 0.086879 27.1668V27.1668Z" fill="black"/>
<path d="M24.0426 27.3694C24.0464 27.2984 24.0439 26.8767 24.0426 27.3694V27.3694Z" fill="black"/>
<path d="M24.0241 26.8557C23.9067 19.445 22.9388 17.3333 15.5325 15.9966C15.5325 15.9966 14.4899 17.3251 12.0599 17.3251C9.62991 17.3251 8.58717 15.9966 8.58717 15.9966C1.26162 17.3187 0.234898 19.3991 0.0998984 26.615C0.0888284 27.2042 0.0836984 27.2352 0.0817184 27.1668C0.0821684 27.2949 0.0827084 27.532 0.0827084 27.9454C0.0827084 27.9454 1.84599 31.5 12.0599 31.5C22.2736 31.5 24.0371 27.9454 24.0371 27.9454C24.0371 27.6798 24.0373 27.4951 24.0376 27.3695C24.0356 27.4118 24.0316 27.3298 24.0241 26.8557Z" fill="white"/>
</svg>
